<svg xmlns="http://www.w3.org/2000/svg" viewBox="0 0 100.15 138.56"><defs><style>.cls-1{opacity:0.25;}.cls-2{fill:#c43939;}.cls-3{fill:none;stroke:#262626;stroke-linecap:round;stroke-linejoin:round;}</style></defs><title>stul_cl</title><g id="Layer_2" data-name="Layer 2"><g id="Layer_1-2" data-name="Layer 1"><g style="opacity:0.25;"><path style="fill:currentColor;" d="M30.27,76.17a5.08,5.08,0,0,1-2-.27h0l-12-4.9-.74-.31c-3.27-1.33-6.34-2.59-7.25-4.38-.38-2.65.25-8.38,1-9,.9-.23,4.39-.92,5.88-1.22l.69-.14c7.39-2.3,32.47-2.36,35.31-2.36h2.2l1.88,0c1.66,0,3.73,0,5.9,0h.32c2.48,0,5-.05,7.11-.05s3.63,0,4.48.09c3.28.24,19.9,5.34,22.9,6.36s3.27,2.16,3.4,3a7,7,0,0,1-.17,2.11,18.56,18.56,0,0,0-.24,2c0,.29,0,.6,0,.9,0,1.45,0,2.28-1.35,2.39l-16,1.4C63.15,73.39,32.44,76.08,31,76.16Zm-.84-1V65.89h.19c.18,0,18.35-1.16,21.81-1.35l0-.6c-3.48.2-22,1.36-22.19,1.37-.75-.24-4.31-1.47-8.8-2.71l-.16.58c4.15,1.14,7.5,2.28,8.44,2.6l.14,0v9.32Z"/></g><g style="opacity:0.25;"><path style="fill:currentColor;" d="M8.2,57.33C6.71,46.14,2,11.39,1.62,9.61c-.08-.39-.2-.8-.32-1.22A6.24,6.24,0,0,1,.92,5L1,5l.07,0a2.77,2.77,0,0,1,1.31-.35,2.75,2.75,0,0,1,1.07.23c1.8.8,3.34,3.5,4.13,7.26L8.12,12c-.84-4-2.47-6.8-4.48-7.69A3.32,3.32,0,0,0,2.32,4H1.69l.42-.36C5.43,1.25,12.07,1,28.8.81h3.5c17.18,0,37.59,1.1,40,1.32a1.53,1.53,0,0,1,1.25.62,2.44,2.44,0,0,1-.1,1.82c-1.15,6.33-5.25,40.14-6.2,48.21l0,.18H67l-5.61,0h-.18c-2.22,0-4.34.05-6,.05l-1.87,0H51.16c-10.34,0-29.43.5-35.48,2.38-.07,0-5.41,1.07-6.49,1.32-.21.05-.42.27-.61.67L8.29,58Z"/></g><path style="fill:none;stroke:#262626;stroke-linecap:round;stroke-linejoin:round;" d="M8,66.37c1,2.07,4.47,3.38,8.17,4.91l12,4.9a6.17,6.17,0,0,0,2.83.28c2.13-.11,64.55-5.62,66.59-5.78s1.56-2,1.64-3.58.57-3,.41-4.11-.49-2.21-3.6-3.27-19.63-6.13-23-6.38-15.13.08-19.71,0-30.25.08-37.61,2.37c0,0-5.4,1.07-6.46,1.31S7.6,63.86,8,66.37Z"/><path style="fill:none;stroke:#262626;stroke-linecap:round;stroke-linejoin:round;" d="M67.48,53.25c.82-7,5.07-42.19,6.22-48.56,0,0,1.22-2.62-1.39-2.87S46.22.35,28.8.51,4.55,1,1.33,3.87c-1.64,1.47-.41,3.92,0,5.8s5.83,42,6.89,50.14"/><path style="fill:none;stroke:#262626;stroke-linecap:round;stroke-linejoin:round;" d="M.71,4.74c2.66-1.61,5.84.93,7.15,7.47"/><path style="fill:none;stroke:#262626;stroke-linecap:round;stroke-linejoin:round;" d="M20.13,62.83c5.07,1.39,9,2.78,9,2.78s19.54-1.23,22.49-1.39"/><line style="fill:none;stroke:#262626;stroke-linecap:round;stroke-linejoin:round;" x1="29.13" y1="65.61" x2="29.13" y2="75.34"/><path style="fill:none;stroke:#262626;stroke-linecap:round;stroke-linejoin:round;" d="M8.71,67.39c-.51.4-.46,2.2-.46,2.2a3.8,3.8,0,0,0,2.34,2.5c2.13,1,14.4,5.62,14.4,5.62"/><path style="fill:none;stroke:#262626;stroke-linecap:round;stroke-linejoin:round;" d="M25,74.89l1,62.41s1.91.76,2.07.76h3.27l4.52-62"/><line style="fill:none;stroke:#262626;stroke-linecap:round;stroke-linejoin:round;" x1="29.13" y1="76.48" x2="28.09" y2="138.06"/><path style="fill:none;stroke:#262626;stroke-linecap:round;stroke-linejoin:round;" d="M35.67,78.82l56.59-4.71s1,.08,1.09-3.07"/><polyline style="fill:none;stroke:#262626;stroke-linecap:round;stroke-linejoin:round;" points="89.5 74.34 92.01 127.75 93.35 128.33 96.35 128.33 98.59 70.34"/><line style="fill:none;stroke:#262626;stroke-linecap:round;stroke-linejoin:round;" x1="94.05" y1="71.04" x2="93.35" y2="128.33"/><path style="fill:none;stroke:#262626;stroke-linecap:round;stroke-linejoin:round;" d="M9.43,71.35s-.36,34.05-4.51,46.16c0,.65.77.87.77.87H7.18s9.19-23.45,10.94-42.91"/><path style="fill:none;stroke:#262626;stroke-linecap:round;stroke-linejoin:round;" d="M15.43,74.07A114.88,114.88,0,0,1,9,109.76"/><path style="fill:none;stroke:#262626;stroke-linecap:round;stroke-linejoin:round;" d="M52.67,77.41s2.3,32.25,2.52,34a.86.86,0,0,0,.92.93h1.64s.49-.17.49-1.53.21-33.87.21-33.87"/></g></g></svg>