<svg xmlns="http://www.w3.org/2000/svg" viewBox="0 0 144.58 125.87"><defs><style>.cls-1{fill:none;stroke:#221f1f;stroke-linecap:round;stroke-linejoin:round;}.cls-2{fill:currentColor;opacity:0.25;}</style></defs><title>podstole_cl</title><g id="Layer_2" data-name="Layer 2"><g id="Layer_1-2" data-name="Layer 1"><path style="fill:none;stroke:#221f1f;stroke-linecap:round;stroke-linejoin:round;" d="M36.8,93.1c14.14,1.33,24.82,7.52,24.82,14.94,0,8.41-13.68,15.22-30.56,15.22S.5,116.45.5,108c0-7.42,10.68-13.61,24.82-14.94"/><path style="fill:none;stroke:#221f1f;stroke-linecap:round;stroke-linejoin:round;" d="M38.3,98.72c1.71.89,2.76,2.1,2.76,3.43,0,2.75-4.48,5-10,5s-10-2.23-10-5c0-1.33,1.05-2.53,2.76-3.43"/><path style="fill:none;stroke:#221f1f;stroke-linecap:round;stroke-linejoin:round;" d="M36.6,96.23a2.88,2.88,0,0,1,1.7,2.32c0,2-3.24,3.6-7.24,3.6s-7.24-1.61-7.24-3.6a2.89,2.89,0,0,1,1.65-2.3"/><path style="fill:none;stroke:#221f1f;stroke-linecap:round;stroke-linejoin:round;" d="M35.9,33.25c.63.29,1,.63,1,1,0,1-2.61,1.77-5.84,1.77s-5.84-.79-5.84-1.77c0-.37.37-.71,1-1"/><ellipse style="fill:none;stroke:#221f1f;stroke-linecap:round;stroke-linejoin:round;" cx="31.06" cy="5.59" rx="7.87" ry="1.59"/><path style="fill:none;stroke:#221f1f;stroke-linecap:round;stroke-linejoin:round;" d="M.5,108v2.12c0,8.4,13.68,15.21,30.56,15.21s30.56-6.81,30.56-15.21V108"/><path style="fill:none;stroke:#221f1f;stroke-linecap:round;stroke-linejoin:round;" d="M25.62,11.39C28,37.2,23.19,80.1,23.19,84.89s3.52,8.74,7.87,8.74,7.87-3.91,7.87-8.74-4.76-47.69-2.42-73.5"/><path style="fill:none;stroke:#221f1f;stroke-linecap:round;stroke-linejoin:round;" d="M48,.64,35.42,3.09A1.85,1.85,0,0,1,34.29,3L34,2.53a4.14,4.14,0,0,0-1.87-.25H30a4.08,4.08,0,0,0-1.86.25L27.83,3a1.85,1.85,0,0,1-1.13.1L14.12.64a10,10,0,0,0-3.19,0L8.86,1c-.92.17-1,.46-.27.67l10.84,3c.35.09,0,.25-.53.26l-2.33,0c-.7,0-1.32.22-1.42.45l-.21.55c-.1.25.39.46,1.11.48l2.37,0c.59,0,.82.19.39.29L3.22,10.61c-1.34.33-1.7.8-.82,1.07l2,.64a10.23,10.23,0,0,0,4.27,0L26.08,8.59c.48-.1,1.22,0,1.27.12l.22.63c.06.2,1,.35,2.17.35h2.64c1.16,0,2.11-.15,2.17-.35l.22-.63c0-.15.79-.22,1.27-.12l17.38,3.69a10.19,10.19,0,0,0,4.26,0l2-.64c.89-.27.52-.74-.81-1.07L43.31,6.75c-.43-.1-.2-.27.39-.29l2.37,0c.72,0,1.21-.23,1.11-.48L47,5.38c-.09-.23-.71-.43-1.42-.45l-2.32,0c-.58,0-.89-.17-.54-.26l10.84-3c.78-.21.65-.5-.27-.67L51.19.61A10,10,0,0,0,48,.64Z"/><path style="fill:none;stroke:#221f1f;stroke-linecap:round;stroke-linejoin:round;" d="M4.44,12.32a6.83,6.83,0,0,0,1.93.21c.62,0,13.14-1.38,17.85-1.78,0,1,3.06,1.78,6.84,1.78s6.84-.8,6.84-1.78c4.72.4,17.23,1.77,17.85,1.78a6.83,6.83,0,0,0,1.93-.21"/><path style="fill:none;stroke:#221f1f;stroke-linecap:round;stroke-linejoin:round;" d="M14.94,5.93c0,.12.75.78,1.59,1.43"/><path style="fill:none;stroke:#221f1f;stroke-linecap:round;stroke-linejoin:round;" d="M8.86,1c-.92.17-1,.46-.27.67l7,3.42"/><path style="fill:none;stroke:#221f1f;stroke-linecap:round;stroke-linejoin:round;" d="M46.51,5.08l7-3.42c.78-.21.65-.5-.27-.67"/><path style="fill:none;stroke:#221f1f;stroke-linecap:round;stroke-linejoin:round;" d="M45.48,7.45c.88-.68,1.75-1.39,1.7-1.52"/><path style="fill:none;stroke:#221f1f;stroke-linecap:round;stroke-linejoin:round;" d="M36.8,90.86v4.83c0,1.13-2.57,2-5.74,2s-5.74-.92-5.74-2V90.86"/><path style="fill:none;stroke:#221f1f;stroke-linecap:round;stroke-linejoin:round;" d="M75.89,119.75S78,116.37,81,116.37a6.89,6.89,0,0,1,4.48,1.3"/><path style="fill:none;stroke:#221f1f;stroke-linecap:round;stroke-linejoin:round;" d="M84.09,116.9s4.07-4,5.57-7.41,4-6.76,4.41-6.95a1.54,1.54,0,0,0,.26-2.27c-.78-.91-1.49-2.28-.39-3.38"/><path style="fill:none;stroke:#221f1f;stroke-linecap:round;stroke-linejoin:round;" d="M90.62,107.54l-.51-1.49s1.37-6.46,3.28-8.1"/><path style="fill:none;stroke:#221f1f;stroke-linecap:round;stroke-linejoin:round;" d="M91,102.74a10,10,0,0,0-4,2A8.33,8.33,0,0,1,79.07,106c-2.86-1-4.74-1.44-4.61-2.73S77.19,97,81.21,98s5,3.81,5,3.81"/><path style="fill:none;stroke:#221f1f;stroke-linecap:round;stroke-linejoin:round;" d="M103.36,94c-3.25.13-7.79.44-9.16,2.14-4.8-.26-6.88,4.35-8.7,6.63s-3.7.77-8.38-.59"/><path style="fill:none;stroke:#221f1f;stroke-linecap:round;stroke-linejoin:round;" d="M105.29,111.05c1.66-.49,1.71-1.85,1.61-3.9s-6-4.21-12,3"/><path style="fill:none;stroke:#221f1f;stroke-linecap:round;stroke-linejoin:round;" d="M109.65,110.07c-.83-4,.14-6.75,3.91-6.82s8,.2,10.78,5.65,5.91,11.5,8.57,12.15,7.34,1.23,9.22-1.3a5.83,5.83,0,0,1,2,3c-5.84,3.64-13.25,3.64-16.76-1.43S120.57,111,116,111a23.55,23.55,0,0,1-7,1.17h-.13A23.53,23.53,0,0,1,102,111c-4.55,0-7.8,5.33-11.31,10.39s-10.91,5.07-16.75,1.43a5.83,5.83,0,0,1,2-3c1.88,2.53,6.56,2,9.22,1.3s5.78-6.69,8.57-12.15,7-5.71,10.78-5.65,4.74,2.8,3.91,6.82"/><path style="fill:none;stroke:#221f1f;stroke-linecap:round;stroke-linejoin:round;" d="M142.13,119.75s-2.08-3.38-5.13-3.38a6.89,6.89,0,0,0-4.48,1.3"/><path style="fill:none;stroke:#221f1f;stroke-linecap:round;stroke-linejoin:round;" d="M133.93,116.9s-4.07-4-5.57-7.41-4-6.76-4.41-6.95a1.54,1.54,0,0,1-.26-2.27c.78-.91,1.49-2.28.39-3.38"/><path style="fill:none;stroke:#221f1f;stroke-linecap:round;stroke-linejoin:round;" d="M127.4,107.54l.51-1.49s-1.37-6.46-3.28-8.1"/><path style="fill:none;stroke:#221f1f;stroke-linecap:round;stroke-linejoin:round;" d="M127,102.74a10,10,0,0,1,4,2A8.33,8.33,0,0,0,139,106c2.86-1,4.74-1.44,4.61-2.73S140.83,97,136.81,98s-5,3.81-5,3.81"/><path style="fill:none;stroke:#221f1f;stroke-linecap:round;stroke-linejoin:round;" d="M114.63,94c3.25.13,7.82.44,9.19,2.14,4.8-.26,6.88,4.35,8.7,6.63s3.7.77,8.38-.59"/><path style="fill:none;stroke:#221f1f;stroke-linecap:round;stroke-linejoin:round;" d="M112.73,111.05c-1.66-.49-1.71-1.85-1.61-3.9s6-4.21,12,3"/><path style="fill:none;stroke:#221f1f;stroke-linecap:round;stroke-linejoin:round;" d="M121,98.5c0,2.2-5.35,4-11.95,4s-12-1.77-12-4"/><path style="fill:none;stroke:#221f1f;stroke-linecap:round;stroke-linejoin:round;" d="M114.91,95.05c3.61.68,6,2,6,3.45,0,2.2-5.35,4-11.95,4s-12-1.77-12-4c0-1.48,2.44-2.77,6-3.45"/><path style="fill:none;stroke:#221f1f;stroke-linecap:round;stroke-linejoin:round;" d="M114.88,95.22c1.71.47,2.79,1.15,2.79,1.91,0,1.43-3.88,2.59-8.66,2.59s-8.66-1.16-8.66-2.59c0-.76,1.08-1.44,2.79-1.91"/><path style="fill:none;stroke:#221f1f;stroke-linecap:round;stroke-linejoin:round;" d="M115.1,96.36c0,1-2.72,1.82-6.09,1.82s-6.09-.81-6.09-1.82"/><path style="fill:none;stroke:#221f1f;stroke-linecap:round;stroke-linejoin:round;" d="M112.21,89.46c1.08.28,1.76.68,1.76,1.14,0,.82-2.22,1.48-5,1.48s-5-.66-5-1.48c0-.46.68-.86,1.76-1.14"/><path style="fill:none;stroke:#221f1f;stroke-linecap:round;stroke-linejoin:round;" d="M113.12,79.24c.53.24.85.53.85.84,0,.82-2.22,1.48-5,1.48s-5-.66-5-1.48c0-.31.31-.59.84-.83"/><path style="fill:none;stroke:#221f1f;stroke-linecap:round;stroke-linejoin:round;" d="M113.14,79.23c0,.68-1.85,1.23-4.13,1.23s-4.13-.55-4.13-1.23"/><path style="fill:none;stroke:#221f1f;stroke-linecap:round;stroke-linejoin:round;" d="M112.63,59c.83.35,1.34.81,1.34,1.33,0,1.07-2.22,1.95-5,1.95s-5-.88-5-1.95c0-.52.51-1,1.34-1.33"/><path style="fill:none;stroke:#221f1f;stroke-linecap:round;stroke-linejoin:round;" d="M112.82,55c0,.63-1.7,1.14-3.81,1.14s-3.81-.51-3.81-1.14"/><path style="fill:none;stroke:#221f1f;stroke-linecap:round;stroke-linejoin:round;" d="M112.82,30.82c0,.64-1.7,1.15-3.81,1.15s-3.81-.51-3.81-1.15"/><path style="fill:none;stroke:#221f1f;stroke-linecap:round;stroke-linejoin:round;" d="M112.18,28.65c0,.39-1.42.71-3.17.71s-3.17-.32-3.17-.71"/><path style="fill:none;stroke:#221f1f;stroke-linecap:round;stroke-linejoin:round;" d="M112.64,55.29a2.66,2.66,0,0,1,1.33,2c0,1.48-2.22,2.29-5,2.29s-5-.81-5-2.29a2.66,2.66,0,0,1,1.33-2"/><path style="fill:none;stroke:#221f1f;stroke-linecap:round;stroke-linejoin:round;" d="M111.69,81.32A8,8,0,0,1,114,86.59c0,2.74-2.22,3.4-5,3.4s-5-.66-5-3.4a8,8,0,0,1,2.28-5.27"/><line style="fill:none;stroke:#221f1f;stroke-linecap:round;stroke-linejoin:round;" x1="105.26" y1="61.71" x2="104.95" y2="79.23"/><line style="fill:none;stroke:#221f1f;stroke-linecap:round;stroke-linejoin:round;" x1="105.73" y1="31.44" x2="105.2" y2="55.04"/><line style="fill:none;stroke:#221f1f;stroke-linecap:round;stroke-linejoin:round;" x1="106.13" y1="13.83" x2="105.79" y2="28.65"/><line style="fill:none;stroke:#221f1f;stroke-linecap:round;stroke-linejoin:round;" x1="112.76" y1="61.71" x2="113.07" y2="79.23"/><line style="fill:none;stroke:#221f1f;stroke-linecap:round;stroke-linejoin:round;" x1="112.29" y1="31.44" x2="112.82" y2="55.04"/><line style="fill:none;stroke:#221f1f;stroke-linecap:round;stroke-linejoin:round;" x1="111.89" y1="13.83" x2="112.23" y2="28.79"/><line style="fill:none;stroke:#221f1f;stroke-linecap:round;stroke-linejoin:round;" x1="102.92" y1="96.36" x2="104.05" y2="90.6"/><line style="fill:none;stroke:#221f1f;stroke-linecap:round;stroke-linejoin:round;" x1="113.97" y1="90.6" x2="115.1" y2="96.36"/><path style="fill:none;stroke:#221f1f;stroke-linecap:round;stroke-linejoin:round;" d="M105.84,28.65s-1.47,0-1.47,1,1.44,1.77,1.44,1.77"/><path style="fill:none;stroke:#221f1f;stroke-linecap:round;stroke-linejoin:round;" d="M112.18,28.65s1.47,0,1.47,1-1.44,1.77-1.44,1.77"/><ellipse style="fill:none;stroke:#221f1f;stroke-linecap:round;stroke-linejoin:round;" cx="109.01" cy="6.2" rx="8.82" ry="1.78"/><path style="fill:none;stroke:#221f1f;stroke-linecap:round;stroke-linejoin:round;" d="M128,.66,113.9,3.4c-.46.09-1.19,0-1.27-.11l-.3-.52a4.77,4.77,0,0,0-2.09-.27h-2.47a4.75,4.75,0,0,0-2.08.27l-.3.52c-.08.14-.81.2-1.27.11L90,.66a11.32,11.32,0,0,0-3.58,0l-2.32.42c-1,.19-1.17.51-.3.75L96,5.11c.39.11,0,.28-.6.3l-2.6.06c-.79,0-1.49.23-1.59.5L91,6.59c-.11.27.43.51,1.24.53l2.66.06c.66,0,.92.21.44.32L77.81,11.82c-1.49.37-1.9.9-.91,1.21l2.29.72A11.52,11.52,0,0,0,84,13.69l19.46-4.13c.54-.11,1.37,0,1.43.14l.24.71a4.49,4.49,0,0,0,2.43.39h3a4.49,4.49,0,0,0,2.43-.39l.24-.71c.06-.17.89-.25,1.43-.14l19.46,4.13a11.52,11.52,0,0,0,4.78.06l2.29-.72c1-.31.58-.84-.92-1.21L122.73,7.5c-.48-.11-.22-.3.44-.32l2.66-.06c.8,0,1.35-.26,1.24-.53L126.83,6c-.1-.27-.8-.48-1.59-.5l-2.6-.06c-.65,0-1-.19-.6-.3L134.18,1.8c.87-.24.73-.56-.3-.75L131.56.63A11.32,11.32,0,0,0,128,.66Z"/><path style="fill:none;stroke:#221f1f;stroke-linecap:round;stroke-linejoin:round;" d="M79.19,13.75a7.66,7.66,0,0,0,2.16.22c.69,0,14.71-1.54,20-2,0,1.1,3.43,2,7.66,2s7.66-.89,7.66-2c5.28.45,19.31,2,20,2a7.66,7.66,0,0,0,2.16-.22"/><path style="fill:none;stroke:#221f1f;stroke-linecap:round;stroke-linejoin:round;" d="M91,6.59a8,8,0,0,0,1.78,1.6"/><path style="fill:none;stroke:#221f1f;stroke-linecap:round;stroke-linejoin:round;" d="M84.14,1.05c-1,.19-1.17.51-.3.75l7.87,3.83"/><path style="fill:none;stroke:#221f1f;stroke-linecap:round;stroke-linejoin:round;" d="M126.31,5.63l7.87-3.83c.87-.24.73-.56-.3-.75"/><path style="fill:none;stroke:#221f1f;stroke-linecap:round;stroke-linejoin:round;" d="M125.16,8.29a8.71,8.71,0,0,0,1.91-1.7"/><path style="fill:currentColor;opacity:0.25;" d="M45.56,4.43a5,5,0,0,1,.9.12l2-1-3.22.88Zm81.86,97.89a10.37,10.37,0,0,1,3.93,2.05,7.9,7.9,0,0,0,7.43,1.14l1.28-.45c2-.7,3.07-1.1,3-1.76a7.71,7.71,0,0,0-2.83-4.14,3.92,3.92,0,0,0-3.31-.73,6.56,6.56,0,0,0-4.56,3.26c.19.26.37.51.55.74,1.13,1.42,2.11,1.17,5,.15.82-.28,1.74-.6,2.82-.91a.49.49,0,0,1,.62.34.51.51,0,0,1-.34.62c-1.06.31-2,.62-2.77.9a11.86,11.86,0,0,1-3.55.88,3.12,3.12,0,0,1-2.59-1.36c-.22-.27-.44-.58-.67-.91a.41.41,0,0,1-.14-.2l-.24-.34c-1.5-2.17-3.34-4.83-6.59-5a2.27,2.27,0,0,1,.59,1.08A12.54,12.54,0,0,1,127.42,102.32Zm-3.59-.82a.9.9,0,0,0,.32.58c.48.21,1.85,2,3.14,4.24l.1-.3A26,26,0,0,0,125,99.13a4.89,4.89,0,0,1-.88,1.46A1,1,0,0,0,123.83,101.5ZM31.06,123.76c-13.76,0-25.45-4.55-29.52-10.84,2.65,6.8,14.88,12,29.52,12s26.87-5.15,29.52-12C56.52,119.21,44.82,123.76,31.06,123.76ZM117.31,6.2c-.39-.48-3.35-1.29-8.3-1.29-5.1,0-8.09.85-8.32,1.33.23.39,3.22,1.24,8.32,1.24C114,7.48,116.92,6.68,117.31,6.2Zm-11.17,7.13h0a27,27,0,0,0,2.87.14,27,27,0,0,0,2.87-.14h0c2.84-.3,4.29-1,4.29-1.35a.46.46,0,0,1,.17-.36.48.48,0,0,1,.38-.13c2,.16,5.11.48,8.34.81l-10.57-2.25a2.79,2.79,0,0,0-.91,0l-.18.53c-.07.19-.25.73-2.91.73h-3c-2.66,0-2.84-.53-2.91-.73l-.18-.53a2.79,2.79,0,0,0-.91,0L93,12.3c3.23-.33,6.39-.65,8.34-.81a.48.48,0,0,1,.38.13.46.46,0,0,1,.17.36c0,.35,1.45,1,4.29,1.35ZM36.19,96l0,0a.45.45,0,0,0,.09-.24V92.08a7.72,7.72,0,0,1-10.48,0v3.61c0,.62,2.09,1.55,5.24,1.55C33.8,97.24,35.73,96.54,36.19,96ZM105.33,9.54l.19.56a7.47,7.47,0,0,0,2,.2h3a7.47,7.47,0,0,0,2-.2l.19-.56c.15-.43.76-.53,1.26-.53a4.77,4.77,0,0,1,.74.06l19.47,4.13.36.07c1.14.12,1.94.19,2.13.2h.14a7.49,7.49,0,0,0,1.89-.2l2.22-.69a4.69,4.69,0,0,0-.81-.27L125.45,8.69a.53.53,0,0,1-.29.1.51.51,0,0,1-.4-.2l0-.08L122.61,8c-.61-.15-.64-.53-.62-.69.06-.59.89-.61,1.17-.62l2.65-.06a2.93,2.93,0,0,0,.7-.1l-.15-.37A3.86,3.86,0,0,0,125.23,6l-2.6-.06c-.51,0-1.19-.09-1.25-.63,0-.11,0-.5.53-.65l11.55-3.15-2-.36a10.71,10.71,0,0,0-3.39,0L114,3.89s-1.46.23-1.79-.35l-.24-.4A7.47,7.47,0,0,0,110.24,3h-2.47a7.62,7.62,0,0,0-1.72.14l-.23.4c-.33.58-1.78.35-1.79.35L89.94,1.15a10.71,10.71,0,0,0-3.39,0l-2,.36L96.11,4.63c.55.15.55.54.53.65-.06.54-.74.61-1.25.63L92.79,6a2.38,2.38,0,0,0-1.18.25l-.1.3a2.85,2.85,0,0,0,.7.1l2.65.06c.27,0,1.11,0,1.17.62,0,.16,0,.54-.62.69L93,8.58a.52.52,0,0,1-.28.11l-.06,0L77.93,12.31a4.69,4.69,0,0,0-.81.27l2.22.69a7.49,7.49,0,0,0,1.89.2h.14c.19,0,1-.08,2.13-.2l.36-.07,19.47-4.13S105.07,8.77,105.33,9.54ZM99.69,6.2c0-2.22,8.37-2.29,9.32-2.29s9.32.07,9.32,2.29S110,8.48,109,8.48,99.69,8.42,99.69,6.2ZM92.77,5l.72,0L88.84,3.68,91.75,5.1A4.64,4.64,0,0,1,92.77,5ZM37.3,93.65v2a1.49,1.49,0,0,1,0,.36,3.17,3.17,0,0,1,1.54,2.38c1.78,1,2.77,2.31,2.77,3.72,0,3.07-4.61,5.48-10.5,5.48s-10.5-2.41-10.5-5.48c0-1.41,1-2.72,2.77-3.72a3.16,3.16,0,0,1,1.55-2.38,1.13,1.13,0,0,1-.06-.36v-2C11,95.09,1,101.1,1,108c0,8.12,13.49,14.72,30.06,14.72s30.06-6.6,30.06-14.72C61.12,101.1,51.14,95.09,37.3,93.65ZM27.83,8.55,28,9a6.75,6.75,0,0,0,1.75.17h2.64A6.75,6.75,0,0,0,34.13,9l.17-.47c.14-.42.7-.51,1.17-.51a4.32,4.32,0,0,1,.68.06l17.37,3.69.33.06c1,.1,1.73.17,1.89.17h.2a6,6,0,0,0,1.59-.17l1.84-.58-.58-.18L45.73,7.87a.57.57,0,0,1-.25.08.5.5,0,0,1-.4-.19l0-.06-1.86-.46c-.59-.15-.62-.52-.6-.67.06-.58.84-.6,1.1-.61l2.37,0a2.75,2.75,0,0,0,.55-.07l-.1-.26h0a.55.55,0,0,1-.22-.06,3.92,3.92,0,0,0-.75-.09l-2.33,0c-.27,0-1.09,0-1.16-.6a.6.6,0,0,1,.51-.65L52.64,1.39,51.1,1.11a9.5,9.5,0,0,0-3,0L35.52,3.58s-1.34.22-1.66-.34l-.2-.34a7,7,0,0,0-1.5-.12H30a7.07,7.07,0,0,0-1.5.12l-.2.34c-.31.56-1.64.34-1.66.34L14,1.13a9.22,9.22,0,0,0-3,0l-1.54.28L19.56,4.13a.59.59,0,0,1,.51.65c-.07.57-.89.59-1.16.6l-2.32,0a2.19,2.19,0,0,0-1,.22l-.07.19a2.77,2.77,0,0,0,.56.07l2.37,0c.26,0,1,0,1.1.61,0,.15,0,.52-.6.67l-2.13.53a.58.58,0,0,1-.27.09l-.05,0L3.34,11.09l-.59.18,1.84.58h0A6.64,6.64,0,0,0,6.28,12h.1c.16,0,.87-.07,1.89-.17l.33-.06L26,8.1S27.57,7.81,27.83,8.55Zm-5.14-3c0-2,7.51-2.1,8.37-2.1s8.37.06,8.37,2.1-7.51,2.09-8.37,2.09S22.69,7.62,22.69,5.59Zm.83,93.88a3.41,3.41,0,0,0-2,2.68c0,2.43,4.35,4.48,9.5,4.48s9.5-2,9.5-4.48a3.43,3.43,0,0,0-2-2.68c-.77,1.84-3.81,3.18-7.55,3.18S24.29,101.31,23.52,99.47Zm-7-95h.27l-3.24-.89,2.07,1A5.05,5.05,0,0,1,16.56,4.43Zm9.56,6.92v.1a18.57,18.57,0,0,0,4.94.58A18.57,18.57,0,0,0,36,11.45a.34.34,0,0,1,0-.1.49.49,0,0,1,.54-.45.47.47,0,0,1,.37.23c.29-.14.46-.27.48-.38a.52.52,0,0,1,.16-.37.58.58,0,0,1,.38-.13c1.55.13,3.94.37,6.47.63l-8.47-1.8a2.17,2.17,0,0,0-.76,0L35,9.5c-.07.21-.24.69-2.65.69H29.74c-2.41,0-2.57-.48-2.65-.69L27,9.07a2.22,2.22,0,0,0-.77,0l-8.46,1.8c2.52-.26,4.91-.5,6.46-.63a.57.57,0,0,1,.38.13.52.52,0,0,1,.16.37c0,.11.19.24.48.38a.47.47,0,0,1,.37-.23A.51.51,0,0,1,26.12,11.35ZM38.39,5.59c-.44-.41-2.9-1.1-7.33-1.1s-6.89.69-7.33,1.1c.44.4,2.9,1.09,7.33,1.09S38,6,38.39,5.59ZM31.06,13a21.69,21.69,0,0,1-4.85-.51c.51,6.23.62,13.38.51,20.71v0l0,1.62a12.83,12.83,0,0,0,4.37.64,12.83,12.83,0,0,0,4.37-.64c0-.54,0-1.07,0-1.61,0,0,0,0,0-.05-.12-7.33,0-14.48.5-20.7A21.69,21.69,0,0,1,31.06,13Zm5.6,83.85c-1.07.9-3.34,1.36-5.6,1.36s-4.53-.46-5.6-1.36a2.21,2.21,0,0,0-1.14,1.67c0,1.5,2.71,3.1,6.74,3.1s6.74-1.6,6.74-3.1A2.19,2.19,0,0,0,36.66,96.88Zm-5.6-3.75c4.06,0,7.37-3.7,7.37-8.24,0-1.07-.25-4.2-.6-8.54-.75-9.32-2-25-2.37-40.41a15.23,15.23,0,0,1-4.4.58,15.28,15.28,0,0,1-4.4-.58C26.31,51.3,25,67,24.29,76.35c-.35,4.33-.6,7.47-.6,8.54C23.69,89.43,27,93.13,31.06,93.13ZM125.25,5a4.57,4.57,0,0,1,1,.13l2.91-1.41L124.53,5ZM109,91.58c2.89,0,4.38-.72,4.46-1,0,0-.29-.34-1.22-.6a10.75,10.75,0,0,1-6.48,0c-.93.26-1.2.55-1.22.62C104.63,90.86,106.12,91.58,109,91.58Zm-6.58,4.85a.17.17,0,0,1,0-.07.09.09,0,0,1,0,0s0,0,0,0l.07-.31c-1.12.41-1.64.87-1.64,1.17,0,.86,3.18,2.1,8.16,2.1s8.16-1.24,8.16-2.1c0-.3-.52-.76-1.64-1.17l.06.31s0,0,0,0a.09.09,0,0,1,0,0,.17.17,0,0,1,0,.07v0c-.16,1.52-3.48,2.21-6.58,2.21s-6.42-.69-6.58-2.21Zm4.18-82.06-.31,14.08s0,0,0,0h0a9.78,9.78,0,0,0,5.4,0h0s0,0,0,0l-.31-14.08c-.79.07-1.6.1-2.4.1S107.4,14.44,106.61,14.37ZM92.94,97.69a2.27,2.27,0,0,1,.59-1.08c-3.23.16-5.09,2.82-6.59,5l-.24.34a.41.41,0,0,1-.14.2c-.23.33-.45.64-.67.91a3.12,3.12,0,0,1-2.59,1.36,11.86,11.86,0,0,1-3.55-.88c-.8-.28-1.71-.59-2.77-.9a.51.51,0,0,1-.34-.62.49.49,0,0,1,.62-.34c1.08.31,2,.63,2.82.91,2.92,1,3.9,1.27,5-.15.18-.23.36-.48.55-.75a6.53,6.53,0,0,0-4.56-3.25,3.92,3.92,0,0,0-3.31.73A7.71,7.71,0,0,0,75,103.3c-.07.66,1,1.06,3,1.76l1.28.45a7.9,7.9,0,0,0,7.43-1.14,10.37,10.37,0,0,1,3.93-2.05A12.54,12.54,0,0,1,92.94,97.69ZM109,100.22c-4.55,0-9.16-1.06-9.16-3.1a1.38,1.38,0,0,1,.2-.7c-1.69.67-2.49,1.45-2.49,2.08,0,1.64,4.7,3.47,11.45,3.47s11.45-1.83,11.45-3.47c0-.63-.8-1.41-2.49-2.08a1.38,1.38,0,0,1,.2.7C118.17,99.16,113.56,100.22,109,100.22Zm23.78,21.31c-2.91-.71-6.09-6.92-8.9-12.4-2.6-5.08-6.37-5.45-10.33-5.38a3.65,3.65,0,0,0-2.92,1.16c-.82,1-1,2.72-.5,5.06a.5.5,0,1,1-1,.2c-.06-.28-.11-.56-.15-.82,0,.26-.09.54-.15.82a.5.5,0,1,1-1-.2c.49-2.34.32-4-.5-5.06a3.67,3.67,0,0,0-2.92-1.16c-3.95-.06-7.73.29-10.33,5.38-2.81,5.48-6,11.69-8.9,12.4-2.09.52-7,1.38-9.4-1.08a5.46,5.46,0,0,0-1.3,2.13c5.13,3,12.28,3.53,15.75-1.49l.86-1.24c3.3-4.82,6.42-9.37,10.86-9.37a.45.45,0,0,1,.16,0,21.73,21.73,0,0,0,2.66.7s0,0,0,0a.49.49,0,0,1,.34-.62c1.19-.35,1.36-1.16,1.25-3.4,0-.4-.47-.94-1.43-1.26-2.23-.74-5.94.07-9.67,4.58a.5.5,0,0,1-.7.07.5.5,0,0,1-.07-.71c4-4.9,8.21-5.74,10.75-4.89,1.27.42,2.08,1.25,2.12,2.17.08,1.66.14,3.51-1.62,4.25a19.48,19.48,0,0,0,3.16.27h.13a19.51,19.51,0,0,0,3.17-.27c-1.76-.74-1.7-2.59-1.62-4.25,0-.92.85-1.75,2.12-2.17,2.54-.85,6.7,0,10.75,4.89a.5.5,0,1,1-.77.64c-3.73-4.51-7.44-5.32-9.67-4.58-1,.32-1.41.86-1.43,1.26-.11,2.24.06,3,1.25,3.4a.5.5,0,0,1,.34.62l0,0a22.26,22.26,0,0,0,2.67-.7.45.45,0,0,1,.16,0c4.44,0,7.56,4.55,10.86,9.37l.86,1.24c3.47,5,10.62,4.51,15.75,1.49a5.46,5.46,0,0,0-1.3-2.13C139.83,122.91,134.88,122.05,132.79,121.53ZM90.63,106l.1.3c1.29-2.21,2.66-4,3.15-4.24a1,1,0,0,0,.31-.58,1,1,0,0,0-.24-.91,4.89,4.89,0,0,1-.88-1.46A26,26,0,0,0,90.63,106ZM85,120.56c2.47-.6,5.67-6.86,8.25-11.88,2.86-5.6,7.11-6,11.23-5.93a4.57,4.57,0,0,1,3.69,1.54,4.32,4.32,0,0,1,.85,1.89,4.32,4.32,0,0,1,.85-1.89,4.57,4.57,0,0,1,3.69-1.54c4.1-.07,8.37.33,11.23,5.93,2.58,5,5.78,11.28,8.25,11.88,1.5.37,6.42,1.34,8.47-.85-.57-.79-2.28-2.84-4.5-2.84a6.61,6.61,0,0,0-4.15,1.17.48.48,0,0,1-.7,0,.5.5,0,0,1,0-.7,5.26,5.26,0,0,1,.89-.57,29.07,29.07,0,0,1-5.16-7c-.29-.66-.62-1.31-1-1.93h0a23.39,23.39,0,0,0-3.23-4.78,1.76,1.76,0,0,1-.86-1.22,2,2,0,0,1,.45-1.82c1-1.11,1.09-2,.41-2.7a.5.5,0,0,1,0-.66.54.54,0,0,1-.26-.16c-1.22-1.51-5.82-1.82-8.18-1.93l0,.13c3.93.78,6.19,2.19,6.19,3.88,0,2.91-6.41,4.47-12.45,4.47s-12.45-1.56-12.45-4.47c0-1.69,2.26-3.1,6.19-3.88l0-.13c-2.34.1-7,.42-8.18,1.93a.54.54,0,0,1-.26.16.5.5,0,0,1,0,.66c-.68.68-.54,1.59.41,2.7a2,2,0,0,1,.45,1.82,1.79,1.79,0,0,1-.89,1.24,23.2,23.2,0,0,0-3.2,4.76h0c-.33.63-.66,1.27-1,1.93a29.07,29.07,0,0,1-5.16,7,5.26,5.26,0,0,1,.89.57.51.51,0,0,1,0,.71.5.5,0,0,1-.71,0A6.53,6.53,0,0,0,81,116.87c-2.22,0-3.93,2-4.5,2.84C78.57,121.9,83.49,120.93,85,120.56Zm24-22.88c3.66,0,5.55-.91,5.59-1.31l-.93-4.68a12.64,12.64,0,0,1-9.32,0l-.93,4.68C103.46,96.77,105.35,97.68,109,97.68Zm0-36c2.72,0,4.45-.86,4.45-1.45,0-.24-.34-.54-.86-.79a11,11,0,0,1-7.18,0c-.52.25-.87.55-.87.79C104.55,60.87,106.29,61.73,109,61.73Zm0-2.64c2.58,0,4.45-.75,4.45-1.79a1.91,1.91,0,0,0-.78-1.33,9.84,9.84,0,0,1-7.34,0,1.93,1.93,0,0,0-.79,1.33C104.55,58.34,106.43,59.09,109,59.09Zm0-26.62a10.74,10.74,0,0,1-2.8-.35l-.51,22.8.09.09a.52.52,0,0,1,.06.13,7.38,7.38,0,0,0,3.16.54,6.77,6.77,0,0,0,3.18-.58.36.36,0,0,1,0-.09l.09-.09-.51-22.8A10.74,10.74,0,0,1,109,32.47Zm4.46,47.6a.5.5,0,0,0-.15-.14c-.8.8-2.93,1-4.31,1s-3.51-.23-4.31-1a.61.61,0,0,0-.15.15c.08.26,1.57,1,4.46,1S113.39,80.34,113.47,80.07ZM109,62.73a11.52,11.52,0,0,1-3.26-.45l-.3,17s0,0,0,0A6.82,6.82,0,0,0,109,80a6.57,6.57,0,0,0,3.57-.7,0,0,0,0,0,0,0l-.3-17A11.52,11.52,0,0,1,109,62.73Zm-3.32-31.94A2.67,2.67,0,0,0,106,31s0,0,0,0a8.16,8.16,0,0,0,2.93.44,7.66,7.66,0,0,0,3-.48l.29-.16,0-.06a.47.47,0,0,1,.5-.47h0a1,1,0,0,0,.27-.63.37.37,0,0,0-.1-.28,1,1,0,0,0-.53-.21.5.5,0,0,1-.24.09,7.27,7.27,0,0,1-3.27.58c-.89,0-2.75-.08-3.42-.69a1.23,1.23,0,0,0-.62.23.37.37,0,0,0-.1.28,1,1,0,0,0,.29.65h0A.49.49,0,0,1,105.69,30.79ZM109,89.49c3.12,0,4.45-.87,4.45-2.9a7.46,7.46,0,0,0-1.95-4.73,15.72,15.72,0,0,1-5,0,7.47,7.47,0,0,0-2,4.73C104.55,88.62,105.89,89.49,109,89.49Z"/></g></g></svg>