<svg xmlns="http://www.w3.org/2000/svg" viewBox="0 0 128.88 117.7"><defs><style>.cls-1{opacity:0.25;}.cls-2{fill:#c43939;}.cls-3{fill:none;stroke:#262626;stroke-linecap:round;stroke-linejoin:round;}</style></defs><title>bar_cl</title><g id="Layer_2" data-name="Layer 2"><g id="Layer_1-2" data-name="Layer 1"><g style="opacity:0.25;"><path style="fill:currentColor;" d="M107.52,49.4l-.93,0c-1.38-.08-3.41-.25-5.57-.43-2.48-.21-5-.42-6.73-.51-1.11,0-3-.17-5.13-.29-4.16-.25-8.83-.53-10-.53-.32,0-.62,0-.87,0l-.51,0-.09.12-.17-.16a.85.85,0,0,1-.16-.58,1.49,1.49,0,0,1,.72-1c.24-.17.54-.4.88-.68,1.52-1.19,4-3.19,6.9-3.71a65.78,65.78,0,0,1,10.91-.91c1,0,2,0,2.86.09,1.36.08,2.89.13,4.36.18a53.83,53.83,0,0,1,9,.74,15.61,15.61,0,0,1,5.23,2.42c.38.25.71.47,1,.63.69.37,1.15.93,1.14,1.37,0,.28-.2.53-.59.73s-2.23.86-8,1.79a11.14,11.14,0,0,0-1.39.32,10.07,10.07,0,0,1-2.94.41Z"/></g><g style="opacity:0.25;"><path style="fill:currentColor;" d="M112.05,34.89a15.63,15.63,0,0,1-1.9-.12c-3.85-.47-6.72-2-8.53-4.51C99.29,27,98.76,22.23,100,16c2.13-10.33,10.59-14.09,15.76-14.09A8.76,8.76,0,0,1,117,2c5.3.71,8.5,1.15,8.08,14.6-.22,7.29-2.16,12.7-5.62,15.67a11,11,0,0,1-7.38,2.61Z"/></g><g style="opacity:0.25;"><path style="fill:currentColor;" d="M41.37,34.2c0-.46.09-1.1.12-1.56V32.4a3,3,0,0,1,.74-2.27,3.19,3.19,0,0,1,2.25-.69l.41,0c1.38.08,3.13.12,5.21.12,1.17,0,2.32,0,3.35,0V30c-2.52.13-5.4.22-7.34.22-.84,0-1.42,0-1.73-.05l-.38,0a1.55,1.55,0,0,0-1.09.35,2.76,2.76,0,0,0-.6,2.15c0,.75,0,1.25,0,1.58v.19l-1,.06Z"/></g><g style="opacity:0.25;"><path style="fill:currentColor;" d="M3.77,33.23V31.59c0-1.68.87-3.67,5-3.67H33.57v-.6H23.43l.38-.35a6.17,6.17,0,0,0,1.82-4.5c0-2.7.22-17.24,1.23-21a.16.16,0,0,0,0-.15l0-.1.07-.09C26.94,1,27.18.8,28,.8A8.89,8.89,0,0,1,29.2.89c2.59.34,7.6.7,25.19.7l8.08,0h.22l0,.23c-.2,1.73-.84,7.6-.94,10.29-.07,1.57-.07,4.23-.07,6.58s0,4.57-.06,5.27v.21c-.21,2.49-.79,5.09-3.6,5.45l-.74.08,0-.82c-.85,0-3.91.13-7.12.13-2.07,0-3.81,0-5.17-.12h-.36a6.22,6.22,0,0,0-.94.07l-.23,0V28.9l-17.74-.06v.6L42,29.5l-.3.33a3.82,3.82,0,0,0-.8,2.56v.22c0,.5-.08,1.19-.12,1.65l0,.19Z"/></g><line style="fill:none;stroke:#262626;stroke-linecap:round;stroke-linejoin:round;" x1="5.6" y1="79.16" x2="8.57" y2="33.44"/><polyline style="fill:none;stroke:#262626;stroke-linecap:round;stroke-linejoin:round;" points="5.55 33.44 0.5 113.72 2.39 113.89 3.34 113.89 5.47 81.13"/><line style="fill:none;stroke:#262626;stroke-linecap:round;stroke-linejoin:round;" x1="26.82" y1="80.35" x2="23.73" y2="34.1"/><polyline style="fill:none;stroke:#262626;stroke-linecap:round;stroke-linejoin:round;" points="24.28 82.3 25.76 104.27 27.47 104.59 28.42 104.34 26.96 82.47"/><line style="fill:none;stroke:#262626;stroke-linecap:round;stroke-linejoin:round;" x1="23.83" y1="75.68" x2="24.14" y2="80.29"/><line style="fill:none;stroke:#262626;stroke-linecap:round;stroke-linejoin:round;" x1="21.04" y1="34.1" x2="23.67" y2="73.2"/><path style="fill:none;stroke:#262626;stroke-linecap:round;stroke-linejoin:round;" d="M4.57,79.1l35,2h.06L41,34.76,3.47,33.52V31.59c0-.75.06-4,5.34-4h25"/><line style="fill:none;stroke:#262626;stroke-linecap:round;stroke-linejoin:round;" x1="59.97" y1="31.9" x2="62.27" y2="29.88"/><polyline style="fill:none;stroke:#262626;stroke-linecap:round;stroke-linejoin:round;" points="5.66 78.23 23.67 73.2 25.32 73.2"/><line style="fill:none;stroke:#262626;stroke-linecap:round;stroke-linejoin:round;" x1="25.46" y1="75.22" x2="10.47" y2="79.43"/><polyline style="fill:none;stroke:#262626;stroke-linecap:round;stroke-linejoin:round;" points="64 77.76 42.45 83.26 41.66 116.79 41.02 117.2 38.61 116.9 39.6 83.26 4.54 81.07"/><line style="fill:none;stroke:#262626;stroke-linecap:round;stroke-linejoin:round;" x1="62.28" y1="75.83" x2="42.5" y2="80.54"/><line style="fill:none;stroke:#262626;stroke-linecap:round;stroke-linejoin:round;" x1="63.9" y1="75.92" x2="62.28" y2="75.83"/><polyline style="fill:none;stroke:#262626;stroke-linecap:round;stroke-linejoin:round;" points="62.29 75.9 59.97 31.9 43.66 32.15 42.5 81.07"/><polyline style="fill:none;stroke:#262626;stroke-linecap:round;stroke-linejoin:round;" points="58.44 29.88 62.27 29.88 66.35 107.18 65.65 107.72 63.96 107.59 62.41 78.16"/><path style="fill:none;stroke:#262626;stroke-linecap:round;stroke-linejoin:round;" d="M21.46,27.62c2.31,0,3.87-2.55,3.87-5.15s.21-17.25,1.24-21.13c0,0-.5-1.17,2.68-.75s9.76.8,33.64.67l.11.2S62.15,9,62,12.09,62,22.52,61.9,24s-.29,5.47-3.87,5.92a114.79,114.79,0,0,1-13.67.54c-1.48-.17-1.72.66-1.74,2.18s0,2,0,2"/><path style="fill:none;stroke:#262626;stroke-linecap:round;stroke-linejoin:round;" d="M42.62,34.65l-1.6.11s.13-1.33.17-2.13-.28-3.71,3.72-3.47,10.3.07,12.52,0"/><line style="fill:none;stroke:#262626;stroke-linecap:round;stroke-linejoin:round;" x1="43.6" y1="29.21" x2="25.46" y2="29.14"/><path style="fill:none;stroke:#262626;stroke-linecap:round;stroke-linejoin:round;" d="M78.32,47.92c0,8.24-1.4,6.42-.57,14.49s1,28.54,1,33.4-.58,8.16-1.61,9.89a7.85,7.85,0,0,0-1.24,3.7c0,.58,0,2,1.53,2,0,0,4.65-1.07,4.65-20.8"/><path style="fill:none;stroke:#262626;stroke-linecap:round;stroke-linejoin:round;" d="M81,90.5c1.56-1,3.17-.86,5.11.37s3.66.87,5.39.58,3.62,1.07,4.61,1.44,3.67.16,5.23,0,4,2.06,4,2.06"/><path style="fill:none;stroke:#262626;stroke-linecap:round;stroke-linejoin:round;" d="M76.35,108.37s1.44-.08,1.48.87"/><path style="fill:none;stroke:#262626;stroke-linecap:round;stroke-linejoin:round;" d="M83.29,52.26c-1,2.08-1.22,4.28-1.22,10.21s.29,21.14.29,22.57"/><path style="fill:none;stroke:#262626;stroke-linecap:round;stroke-linejoin:round;" d="M105.34,88.61,81,85s-.41-19.33-.69-22.35-.55-9,1.16-9.94,4.11-.44,5.82.6,3.84-.16,5.27-.38,2.47,1.7,4.72,1.65,3.08-1.16,4.92-.88a4.36,4.36,0,0,1,3.65,2.52"/><path style="fill:none;stroke:#262626;stroke-linecap:round;stroke-linejoin:round;" d="M105.81,49.9c.11,3.67.16,13.28,0,18.23s-.44,19.87-.47,22.07-.14,18.39,0,21,.57,5.6.57,5.6a6.26,6.26,0,0,0,2.37,0,10.08,10.08,0,0,0,.55-6.09c-.5-2.2-.5-18.39.24-27.84s1.62-27.73,1.62-33.49"/><path style="fill:none;stroke:#262626;stroke-linecap:round;stroke-linejoin:round;" d="M82.36,84.63c4.16-1.54,13.07-4,16.35-4s6.8,0,6.8,0"/><path style="fill:none;stroke:#262626;stroke-linecap:round;stroke-linejoin:round;" d="M82.31,81.25a72.77,72.77,0,0,1,23.2-3.35"/><path style="fill:none;stroke:#262626;stroke-linecap:round;stroke-linejoin:round;" d="M121.53,81.09c-1.91,1.66-12.62,4.09-12.62,4.09"/><path style="fill:none;stroke:#262626;stroke-linecap:round;stroke-linejoin:round;" d="M109.41,78.18c3.46,0,10.27.62,12,1.86"/><path style="fill:none;stroke:#262626;stroke-linecap:round;stroke-linejoin:round;" d="M109.21,81c3,.2,7.89.42,9,1.59"/><path style="fill:none;stroke:#262626;stroke-linecap:round;stroke-linejoin:round;" d="M121.81,83.75s-1.46,1.56-13.06,4.65"/><path style="fill:none;stroke:#262626;stroke-linecap:round;stroke-linejoin:round;" d="M79.17,47.92a8.73,8.73,0,0,1-1.75,0c-.28-.11-.83-1.21.49-2.14s4.34-3.79,7.91-4.45a65.42,65.42,0,0,1,13.84-.82c4.28.27,10.21.16,13.45.93s5.11,2.42,6.31,3.07,1.93,1.93.55,2.64S113.6,48.69,111.9,49s-2.36.88-5.33.72-9.06-.77-12.3-.94S80.93,47.92,79.17,47.92Z"/><line style="fill:none;stroke:#262626;stroke-linecap:round;stroke-linejoin:round;" x1="80.96" y1="47.98" x2="81.04" y2="53.08"/><path style="fill:none;stroke:#262626;stroke-linecap:round;stroke-linejoin:round;" d="M110.61,53.69c3.62-.62,9.64-1.49,9.64-3s.25-3.93.25-3.93"/><path style="fill:none;stroke:#262626;stroke-linecap:round;stroke-linejoin:round;" d="M117,1.71C112.46,1.1,102.13,4.35,99.74,16s1.65,18,10.38,19.11,14.82-5,15.23-18.45S122.5,2.45,117,1.71Z"/><line style="fill:none;stroke:#262626;stroke-linecap:round;stroke-linejoin:round;" x1="96.44" y1="78.33" x2="97.71" y2="54.59"/><line style="fill:none;stroke:#262626;stroke-linecap:round;stroke-linejoin:round;" x1="95.97" y1="87.23" x2="96.31" y2="80.87"/><polyline style="fill:none;stroke:#262626;stroke-linecap:round;stroke-linejoin:round;" points="98.25 93.09 97.71 101.45 95.21 101.45 95.67 92.72"/><line style="fill:none;stroke:#262626;stroke-linecap:round;stroke-linejoin:round;" x1="99.06" y1="80.61" x2="98.6" y2="87.62"/><line style="fill:none;stroke:#262626;stroke-linecap:round;stroke-linejoin:round;" x1="100.79" y1="53.78" x2="99.22" y2="78.1"/><path style="fill:none;stroke:#262626;stroke-linecap:round;stroke-linejoin:round;" d="M99.66,40.51c1-5.17-1.93-15.54-1.93-17.63s.09-9.72,4.89-15.48S113.44.26,119.7,1s8.56,5.05,8.67,12.63-2.3,13.06-4.72,19.87-1,19.66-.66,23.72,4,49.39,4,49.39H125c-.12,0-1.11-.53-1.23-.57l-4.91-54.2"/><path style="fill:none;stroke:#262626;stroke-linecap:round;stroke-linejoin:round;" d="M102.16,40.63a28.88,28.88,0,0,0,.79-6.05c0-1.21.17-1,1.7,0a16.61,16.61,0,0,0,12.41,2l2-.72"/><path style="fill:none;stroke:#262626;stroke-linecap:round;stroke-linejoin:round;" d="M119.37,34.41c-.28,1.48-1.22,6.83-.78,9.59"/></g></g></svg>