<svg xmlns="http://www.w3.org/2000/svg" viewBox="0 0 160.93 133.62"><defs><style>.cls-1{opacity:0.25;}.cls-2{fill:#c43939;}.cls-3{fill:none;stroke:#262626;stroke-linecap:round;stroke-linejoin:round;}</style></defs><title>stulia_cl</title><g id="Layer_2" data-name="Layer 2"><g id="Layer_1-2" data-name="Layer 1"><g style="opacity:0.25;"><path style="fill:currentColor;" d="M32,74.42a40.39,40.39,0,0,1-13.49-2.07l-.07,0,0-.06a4.84,4.84,0,0,0-1.28-1.46,39.46,39.46,0,0,0-7.07-3.47c-.65-.25-.82-1.65-.55-4.7,0-.43.07-.79.07-1a2.67,2.67,0,0,1,.34-1.38l.06-.1h0a2.27,2.27,0,0,1,.91-.79c1-.5,9.8-1.36,14.92-1.45,4.82-.09,12.85-.33,18.87-.62.43,0,.87,0,1.31,0,5.59,0,11.9,1.59,17.47,3,6.82,1.72,7,2.8,7.13,3.58a22,22,0,0,1,0,5.43c-.26.51-1.86,1.43-4.11,2.08S49.79,73.28,40.5,74C37,74.3,34.36,74.42,32,74.42ZM14,62.8c4.7,2.27,12.08,3.42,21.94,3.42,3.65,0,7.7-.16,12-.47l0-.6c-4.34.32-8.39.48-12,.48-9.73,0-17-1.14-21.62-3.37Z"/></g><g style="opacity:0.25;"><path style="fill:currentColor;" d="M119.8,73.29c-2.6,0-6,0-7.54-.25a9,9,0,0,0-3.75-1.3c-6.21-.66-11.62-1.09-16.08-1.29h-.61l0-.15a25,25,0,0,1-.24-5.07,2.73,2.73,0,0,1,2.85-3l9.35-.78h.13c7.16-.61,16.07-1.36,17.71-1.43l.87,0c2.61,0,8.66.23,14.12.44,2.55.1,4.74.19,5.93.22,4,.11,10.26.74,11.37,1.16.74.27.73.41.68,1.51,0,.33,0,.73-.05,1.21v.87c0,2,0,4.52-1.37,4.71l-2.33.32c-5.6.77-18.7,2.59-21.6,2.69C127.16,73.21,123.35,73.29,119.8,73.29Zm-18.38-9.45,3.45.33h.18a192.35,192.35,0,0,0,19.4,1.16,117.57,117.57,0,0,0,17-1.18l-.09-.59a117.66,117.66,0,0,1-16.89,1.17h0c-7.47,0-14.06-.64-19.34-1.15-1.28-.13-2.5-.24-3.63-.34Z"/></g><g style="opacity:0.25;"><path style="fill:currentColor;" d="M95.65,58.78a41,41,0,0,1-11.09-1.43l-.13,0v-.13c-.74-6.1-2.21-17.11-3.76-22.24-.8-2.67-1.88-5.77-2.83-8.51-1.11-3.18-2.13-6.13-2.49-7.7-.75-3.27-1-7,6.2-10,1-.4,1.78-.76,2.52-1.08l.09,0,.08,0a16.63,16.63,0,0,0,6.49,1.75A5.7,5.7,0,0,0,92.87,9,11.08,11.08,0,0,1,96.7,8a4.48,4.48,0,0,1,1.61.33c.92.33,2.25,1,4,1.83l2.7,1.32c2.83,1.36,3.49,4.15,4.48,9.39.85,4.45,1.52,13.26,1.88,18l.16,2c.08.94.19,2.1.31,3.32.36,3.64.8,8.14.45,9.2-.41,1.24-1.77,1.82-5.38,3.38l-1,.43c-2.19.95-6,1.51-10.18,1.51Z"/></g><g style="opacity:0.25;"><path style="fill:currentColor;" d="M25.07,49.44c-5.84,0-11-3.22-15.19-9.58-.13-.43-.25-.79-.39-1.13s-.39-1-.61-1.56l-.05-.12c-1.53-3.79-3.61-9-3.61-14.28a27.28,27.28,0,0,1,3.51-12.5A16.27,16.27,0,0,1,14.5,4.2a.92.92,0,0,1,.38-.07,20.41,20.41,0,0,1,3.58.74,26.3,26.3,0,0,0,4.76,1h.46a12.93,12.93,0,0,0,3.65-.64,7.36,7.36,0,0,1,2-.4h.23C36.7,9.25,41.67,19,41.67,28.43a29.15,29.15,0,0,1-1.56,10,16.05,16.05,0,0,1-14.65,11Z"/></g><line style="fill:none;stroke:#262626;stroke-linecap:round;stroke-linejoin:round;" x1="6.93" y1="76.34" x2="7.54" y2="70.66"/><path style="fill:none;stroke:#262626;stroke-linecap:round;stroke-linejoin:round;" d="M4.46,74.27c.38-5.08,2.73-3.84,2.73-3.84s1.24.87,4.34,2.6,5,5.33,5.2,10.66,2.85,46.58,2.85,46.58l1.61.87,3.1-.87s-3.1-43.61-3.35-47-1.36-10.41-4-12.27-9-4.21-9-4.21a4.19,4.19,0,0,0-4.08,3.84C3.35,74.52.5,103.39.5,103.39l.64,1.3,2.71.06L6.7,78.39"/><path style="fill:none;stroke:#262626;stroke-linecap:round;stroke-linejoin:round;" d="M19.76,76.33c5.21,2,15.06,2,21.81,1.29S63,75.08,64.74,74.71s3.91-1.06,4.09-1.8V71"/><polyline style="fill:none;stroke:#262626;stroke-linecap:round;stroke-linejoin:round;" points="50.36 76.62 44.8 99.18 42.44 99.18 41.39 97.69 46.59 77.07"/><path style="fill:none;stroke:#262626;stroke-linecap:round;stroke-linejoin:round;" d="M6.75,67.05c-.63-1-.88-4-.76-5.91s1.24-9.91,1.16-13.26-.66-8.3-2.48-11.73-2.81-8.51-2.85-13.3S4.38,1,20.61.51,44.24,15.79,44.24,25.25,42.5,39.25,43,43.54s2.87,13.39,2.87,13.39"/><path style="fill:none;stroke:#262626;stroke-linecap:round;stroke-linejoin:round;" d="M42.21,56.85C40.89,51.91,40,49,39.65,46a24.77,24.77,0,0,1,0-5.45"/><path style="fill:none;stroke:#262626;stroke-linecap:round;stroke-linejoin:round;" d="M7.07,58c-.44,3.22-.81,7.93,2.23,8.8"/><path style="fill:none;stroke:#262626;stroke-linecap:round;stroke-linejoin:round;" d="M68.38,73.44c1.94,1.88,1.16,18.67,1.16,18.67"/><path style="fill:none;stroke:#262626;stroke-linecap:round;stroke-linejoin:round;" d="M18.29,72.59C25.49,75,31.6,75,40.52,74.32s23.89-2,26.1-2.69,4-1.57,4.3-2.23.16-4.63,0-5.62-.6-2.12-7.35-3.82S50.43,56.71,44.7,57s-13.66.52-18.86.62-14,1-15.06,1.48A2.65,2.65,0,0,0,9.3,61.63c0,1.09-.78,5.61.75,6"/><path style="fill:none;stroke:#262626;stroke-linecap:round;stroke-linejoin:round;" d="M13.92,62.44c7,3.49,19.66,4.07,34.2,3"/><path style="fill:none;stroke:#262626;stroke-linecap:round;stroke-linejoin:round;" d="M69.7,70.4c3.41,2.76,2.85,21.71,2.85,21.71L73.42,121l-2.67.62-1.92-1s-1.11-39.28-1-41.13-.1-5.5-1.57-5.14"/><polyline style="fill:none;stroke:#262626;stroke-linecap:round;stroke-linejoin:round;" points="16.9 86.81 4.81 76.77 5.07 74.83 16.73 83.69"/><line style="fill:none;stroke:#262626;stroke-linecap:round;stroke-linejoin:round;" x1="67.78" y1="80.59" x2="55.91" y2="75.93"/><line style="fill:none;stroke:#262626;stroke-linecap:round;stroke-linejoin:round;" x1="60.91" y1="75.28" x2="67.76" y2="77.65"/><path style="fill:none;stroke:#262626;stroke-linecap:round;stroke-linejoin:round;" d="M9.59,40c3.73,5.63,8.88,9.9,15.88,9.78A16.26,16.26,0,0,0,40.4,38.53,29,29,0,0,0,42,28.39c0-11.77-8.35-26.31-20.7-26.31S4.92,16.62,4.92,22.77s2.72,12,4.29,16.07,1.2,10.24,1.08,12.47-1,7.27-.66,9.13"/><path style="fill:none;stroke:#262626;stroke-linecap:round;stroke-linejoin:round;" d="M29.71,4.53c-1.58-.26-3.53,1.16-6.47,1s-8-2.23-9-1.57"/><path style="fill:none;stroke:#262626;stroke-linecap:round;stroke-linejoin:round;" d="M15.49,3.89c2.82-1.33,9-.83,12.08.93"/><path style="fill:none;stroke:#262626;stroke-linecap:round;stroke-linejoin:round;" d="M12.39,70.66c4.16,3.67,5.15,7.57,5.46,16.15"/><path style="fill:none;stroke:#262626;stroke-linecap:round;stroke-linejoin:round;" d="M87.3,84.89c-1.46,8.48-6.18,34.74-6.18,34.74l-2.46.48-1.59-1.32S83.28,83.6,84,80s1.86-9.49,8.42-9.21,13.71,1,16.07,1.28,7.72,2,8.84,11.61,4.62,49,4.62,49l-2.06.5-2.65-.5s-3.71-44.35-4-47.66-.58-9-7.1-9.58S93.07,74.21,91.56,74s-3.92-.62-5.09,5.42"/><path style="fill:none;stroke:#262626;stroke-linecap:round;stroke-linejoin:round;" d="M92,74.05c-2.8,0-3.8,4.9-4.46,9.11"/><path style="fill:none;stroke:#262626;stroke-linecap:round;stroke-linejoin:round;" d="M108.48,73.23c3.92,1.57,6.19,5.12,6.61,12.06"/><path style="fill:none;stroke:#262626;stroke-linecap:round;stroke-linejoin:round;" d="M115.26,76.74a68.54,68.54,0,0,0,18.33-.27c7.43-1,14.87-1.92,17-2.29s3.29-1.36,3.41-1.79l-.37-1.65"/><path style="fill:none;stroke:#262626;stroke-linecap:round;stroke-linejoin:round;" d="M153.44,73c1,.77,1.87,3.72,3.28,15.39s3.71,31.34,3.71,31.34l-2.64.74h-1.24s-5.12-41.38-5.16-42.42-1.06-3.36-2.22-3.66"/><line style="fill:none;stroke:#262626;stroke-linecap:round;stroke-linejoin:round;" x1="121.12" y1="77.23" x2="118.34" y2="93.66"/><line style="fill:none;stroke:#262626;stroke-linecap:round;stroke-linejoin:round;" x1="119.52" y1="106.11" x2="124.58" y2="78.6"/><polyline style="fill:none;stroke:#262626;stroke-linecap:round;stroke-linejoin:round;" points="113.56 88.55 85.58 84.65 85.86 82.95 113.39 86.44"/><path style="fill:none;stroke:#262626;stroke-linecap:round;stroke-linejoin:round;" d="M86.47,73.23c-4.92-2.15-5.73-10.82-6.28-15.65S78.6,43.33,77.07,38.19,73,25.06,72,20.84s-1.24-9.54,2.6-12.08,11.34-5.51,12.7-6a8.37,8.37,0,0,1,6.81.44c2.73,1.48,7.69,3.9,10,5.08s7.18,5.45,7.25,13.81,3.28,34.32,5.26,37.79"/><path style="fill:none;stroke:#262626;stroke-linecap:round;stroke-linejoin:round;" d="M89.9,71c-2.9-.52-4.51-2.51-5.31-9.76S82.11,40.79,80.37,35,75.73,21.77,75.05,18.8s-1.18-7.19,6.38-10.35S89.24,4.55,92,5.79a36.84,36.84,0,0,1,3.71,1.86"/><path style="fill:none;stroke:#262626;stroke-linecap:round;stroke-linejoin:round;" d="M111.78,54.73a43,43,0,0,0,1.49,5.64"/><path style="fill:none;stroke:#262626;stroke-linecap:round;stroke-linejoin:round;" d="M84.16,57.55c7,2.14,17.28,2,21.8,0s6.07-2.51,6.57-4-.44-8.79-.75-12.64-1-14.86-2-20.07-1.68-8.17-4.65-9.6-5.3-2.66-6.68-3.16-2.36-.62-5.65.68-8.6-1.48-8.6-1.48"/><path style="fill:none;stroke:#262626;stroke-linecap:round;stroke-linejoin:round;" d="M81.61,6.61c-5.46,3-7.54,4.48-8,8S76,25.49,77.07,29.21"/><path style="fill:none;stroke:#262626;stroke-linecap:round;stroke-linejoin:round;" d="M112.58,49.78c.77,4,.94,7,1.76,8.83"/><path style="fill:none;stroke:#262626;stroke-linecap:round;stroke-linejoin:round;" d="M83.53,64.81c.42,3.8,1.13,5.74,4.62,6.91"/><path style="fill:none;stroke:#262626;stroke-linecap:round;stroke-linejoin:round;" d="M151.41,74c1.63,1.46,2,6.05,2.31,8.93"/><polyline style="fill:none;stroke:#262626;stroke-linecap:round;stroke-linejoin:round;" points="151.82 81.9 123.35 78.45 123.35 77.23"/><line style="fill:none;stroke:#262626;stroke-linecap:round;stroke-linejoin:round;" x1="126.32" y1="77.14" x2="151.6" y2="80"/><path style="fill:none;stroke:#262626;stroke-linecap:round;stroke-linejoin:round;" d="M91.59,70.75a20.88,20.88,0,0,1-.34-5.52c.06-1.36.46-3.1,3.12-3.28s24.52-2.1,27.2-2.22,17.1.53,20.94.64,10.24.72,11.46,1.17.85.79.83,3,.26,5.62-1.64,5.86-20.44,2.89-23.95,3-14.22.31-17.11-.11"/><path style="fill:none;stroke:#262626;stroke-linecap:round;stroke-linejoin:round;" d="M101.25,63.53c9.23.8,23.29,2.78,40.33.31"/></g></g></svg>