<svg xmlns="http://www.w3.org/2000/svg" viewBox="0 0 172.51 77.41"><defs><style>.cls-1{opacity:0.25;}.cls-2{fill:#c43939;}.cls-3{fill:none;stroke:#262626;stroke-linecap:round;stroke-linejoin:round;}</style></defs><title>divan_cl</title><g id="Layer_2" data-name="Layer 2"><g id="Layer_1-2" data-name="Layer 1"><g style="opacity:0.25;"><path style="fill:currentColor;" d="M128.33,19.51a.52.52,0,1,1,.52-.52A.52.52,0,0,1,128.33,19.51Z"/></g><g style="opacity:0.25;"><circle style="fill:currentColor;" cx="111.6" cy="18.99" r="0.52"/></g><g style="opacity:0.25;"><path style="fill:currentColor;" d="M93.69,46c-4.35,0-6.87-.69-6.87-4.23V35.81c.12-.55,2-3,5.62-3.27,2.21-.17,5.2-.2,7.31-.2,1.59,0,2.75,0,2.84,0,4.41.17,10,.26,17.11.26,7.85,0,16-.11,21.87-.18H142c3.79,0,7-.09,9-.09l1.77,0c5.65.19,8.55,1,8.89,2.63.47,2.18-.27,8.18-1.37,9.41S157.68,46,144.73,46ZM90.22,35.46c.5-.34,2.29-1.31,6.57-1.31,1,0,2,.05,3.1.14l0-.59c-1.11-.1-2.16-.15-3.14-.15-4.65,0-6.51,1.1-7,1.48Z"/></g><g style="opacity:0.25;"><path style="fill:currentColor;" d="M19.4,59C6.85,59,5.88,55.47,4.86,51.69c-.1-.38-.19-.69-.28-1C3.41,46.73,1.74,36.8,1,30.36c-.45-3.8-.08-8.93,2.31-11.94A5.69,5.69,0,0,1,7.2,16.2c5.65-.61,8-3.27,12-7.67l.11-.13c4.1-4.56,5.26-5.66,10.14-6.25C34.48.93,50.7.8,86.52.8s52,.13,57.14,1.36c4.87.59,6.73,1.2,10,6.21,3.51,5.31,6.46,7.22,12.15,7.83a5,5,0,0,1,3.4,1.94c2.47,3.11,2.76,9.13,2.26,13.34-.62,5.25-1.78,15-3.05,19.22l-.27,1c-1,3.78-2,7.35-14.54,7.35ZM86.7,44c1.14,2.32,4.21,2.51,7,2.51h51c13.28,0,14.69-.28,16-1.75s2-7.8,1.51-9.93c-.42-1.95-3.33-2.9-9.46-3.11l-1.78,0-3.27,0h-.25v-.07c-3.68-1.19-3.76-14.48-3.38-17.47l-.59-.1c-.18,1.87-.61,13.53,2.49,17.21l.42.5-.63-.18c-2.22-.65-2.58-4-2.59-4a87.63,87.63,0,0,1-.71-11.57c0-6.77,1.66-10.84,2.67-11.42L145.1,4c-1.75.56-3.2,5.92-3.2,12a85,85,0,0,0,.72,11.64,6.38,6.38,0,0,0,1.68,3.76l.36.34-3.1,0c-6.37.08-14.19.18-21.9.18-7.08,0-12.66-.09-17-.26-.31,0-1.39,0-2.85,0-2.13,0-5.13,0-7.37.2a8.17,8.17,0,0,0-5.3,2.4l-.26.27-.08-.36c-.3-1.29-1.62-2-4-2.19-3.92-.3-12.19-.3-12.27-.3-11.74,0-32.08.35-42.25.55l-.1-.37c1.59-.91,2.21-3.12,2.33-4.28V13.18c0-6-.75-8.79-2.49-9.17l-.07.6c1.32.39,2,3.2,2,8.57V27.63c0,.06-.42,3.94-3.13,4.12v.6H26.5c-3.41.07-5.92.13-7,.17l-1.38,0c-4,.1-6.91.18-7.36,2.31s.33,7.61,1.58,9c1.43,1.61,3.31,2.66,15.93,2.66h51c2.78,0,5.84-.19,7-2.51l.18-.37Zm75.71-11.87c1-1,1.64-4.12,1.71-6.12.09-2.34.64-6.92,1.6-8l-.36-.48c-1.28,1.31-1.76,6.52-1.84,8.49s-.74,4.83-1.46,5.65ZM10,27.14c.15-4.27,0-8.28-2.12-9.19l-.19.58c1.95.93,1.81,6,1.72,8.58Zm118.29-9.27A1.12,1.12,0,1,0,129.45,19,1.12,1.12,0,0,0,128.33,17.87Zm-16.73,0A1.12,1.12,0,1,0,112.73,19,1.12,1.12,0,0,0,111.6,17.87Zm-16.72,0A1.12,1.12,0,1,0,96,19,1.12,1.12,0,0,0,94.88,17.87Zm-16.72,0A1.12,1.12,0,1,0,79.28,19,1.13,1.13,0,0,0,78.16,17.87Zm-16.73,0A1.12,1.12,0,1,0,62.55,19,1.12,1.12,0,0,0,61.43,17.87Zm-16.72,0A1.12,1.12,0,1,0,45.83,19,1.12,1.12,0,0,0,44.71,17.87Z"/></g><g style="opacity:0.25;"><circle style="fill:currentColor;" cx="61.43" cy="18.99" r="0.52"/></g><g style="opacity:0.25;"><circle style="fill:currentColor;" cx="78.16" cy="18.99" r="0.52"/></g><g style="opacity:0.25;"><circle style="fill:currentColor;" cx="94.88" cy="18.99" r="0.52"/></g><g style="opacity:0.25;"><circle style="fill:currentColor;" cx="44.71" cy="18.99" r="0.52"/></g><g style="opacity:0.25;"><path style="fill:currentColor;" d="M28.31,46C15,46,13.9,44.7,12.83,43.49s-1.89-6.44-1.45-8.5c.36-1.66,3.2-1.74,6.79-1.84l1.39,0c4.44-.14,35.33-.75,50.88-.75.08,0,8.33,0,12.22.3,3.57.28,3.56,1.72,3.56,2.27v6.79c0,3.54-2.52,4.23-6.87,4.23Zm-15.12-7.8a14.7,14.7,0,0,0,1.25,5.27l.49-.34a14.75,14.75,0,0,1-1.15-5ZM35.37,35.5c6.48-.16,20.3-.37,31.27-.37,8.21,0,13.26.11,15,.34l.09-.59c-1.81-.23-6.84-.35-15-.35-11.87,0-26.38.25-31.45.37Z"/></g><path style="fill:none;stroke:#262626;stroke-linecap:round;stroke-linejoin:round;" d="M27.7,4.28c1.36.15,2.42,2,2.42,8.9v14.5s-.46,4.38-3.63,4.38"/><path style="fill:none;stroke:#262626;stroke-linecap:round;stroke-linejoin:round;" d="M17.43,59.34,16.07,76.15a1.41,1.41,0,0,0,1.36.76,3.13,3.13,0,0,0,2.34-.53l3.25-17"/><path style="fill:none;stroke:#262626;stroke-linecap:round;stroke-linejoin:round;" d="M31,64.68l-.19,2.24a1.1,1.1,0,0,0,1.06.59,2.43,2.43,0,0,0,1.82-.41l.46-2.42"/><path style="fill:none;stroke:#262626;stroke-linecap:round;stroke-linejoin:round;" d="M70.44,32.06c-15.26,0-46.36.6-50.89.76s-8,0-8.46,2.11.3,7.4,1.51,8.76,2.57,2.56,15.71,2.56h51c4.22,0,7.17-.6,7.17-4.53V34.93c0-.53.11-2.27-3.83-2.57S70.44,32.06,70.44,32.06Z"/><path style="fill:none;stroke:#262626;stroke-linecap:round;stroke-linejoin:round;" d="M86.52,59.34h67.12c13.89,0,13.89-4.48,15.1-8.56s2.3-12.92,3.06-19.26-.34-15-5.93-15.62-8.44-2.41-11.93-7.7c-3.35-5.09-5.28-5.74-10.27-6.34C138.69.65,123.89.5,86.52.5S34.35.65,29.36,1.86c-5,.6-6.19,1.81-10.27,6.34s-6.34,7.1-11.93,7.7S-.08,24.06.67,30.4,3.09,46.71,4.3,50.78s1.2,8.56,15.1,8.56Z"/><path style="fill:none;stroke:#262626;stroke-linecap:round;stroke-linejoin:round;" d="M145.33,4.28c-1.35.15-3.13,4.84-3.13,11.78a84.25,84.25,0,0,0,.72,11.62s.45,4.38,3.62,4.38"/><path style="fill:none;stroke:#262626;stroke-linecap:round;stroke-linejoin:round;" d="M155.6,59.34,157,76.15a1.39,1.39,0,0,1-1.36.76,3.14,3.14,0,0,1-2.34-.53l-3.24-17"/><path style="fill:none;stroke:#262626;stroke-linecap:round;stroke-linejoin:round;" d="M142,64.68l.18,2.24a1.07,1.07,0,0,1-1,.59,2.41,2.41,0,0,1-1.82-.41l-.46-2.42"/><path style="fill:none;stroke:#262626;stroke-linecap:round;stroke-linejoin:round;" d="M151,64.68H124.82a13.82,13.82,0,0,0-3.89.57l-.72.22a13.47,13.47,0,0,1-3.89.57H56.72a13.47,13.47,0,0,1-3.89-.57l-.73-.22a13.8,13.8,0,0,0-3.88-.57H22"/><circle style="fill:none;stroke:#262626;stroke-linecap:round;stroke-linejoin:round;" cx="128.33" cy="18.99" r="0.82"/><circle style="fill:none;stroke:#262626;stroke-linecap:round;stroke-linejoin:round;" cx="111.61" cy="18.99" r="0.82"/><circle style="fill:none;stroke:#262626;stroke-linecap:round;stroke-linejoin:round;" cx="94.88" cy="18.99" r="0.82"/><circle style="fill:none;stroke:#262626;stroke-linecap:round;stroke-linejoin:round;" cx="78.16" cy="18.99" r="0.82"/><circle style="fill:none;stroke:#262626;stroke-linecap:round;stroke-linejoin:round;" cx="61.43" cy="18.99" r="0.82"/><circle style="fill:none;stroke:#262626;stroke-linecap:round;stroke-linejoin:round;" cx="44.71" cy="18.99" r="0.82"/><path style="fill:none;stroke:#262626;stroke-linecap:round;stroke-linejoin:round;" d="M102.6,32.06c16.48.65,45.64-.15,50.17,0s8.72.76,9.18,2.87-.24,8.31-1.45,9.67-2.63,1.65-15.77,1.65h-51c-4.23,0-7.17-.6-7.17-4.53V35.78c0-.53,2-3.23,5.89-3.54S102.6,32.06,102.6,32.06Z"/><path style="fill:none;stroke:#262626;stroke-linecap:round;stroke-linejoin:round;" d="M7.64,18.17c2.33.76,2.22,6,2.1,9.15"/><path style="fill:none;stroke:#262626;stroke-linecap:round;stroke-linejoin:round;" d="M35.16,35.2c9.59-.23,42.21-.71,46.76,0"/><path style="fill:none;stroke:#262626;stroke-linecap:round;stroke-linejoin:round;" d="M143.84,14c-.29,1.81-.64,17.18,3.79,18.07"/><path style="fill:none;stroke:#262626;stroke-linecap:round;stroke-linejoin:round;" d="M165.69,17.65c-1.25.93-1.79,6.29-1.87,8.39s-.83,5.35-1.73,6"/><path style="fill:none;stroke:#262626;stroke-linecap:round;stroke-linejoin:round;" d="M89.85,35.37s2.07-2.12,10.26-1.36"/><path style="fill:none;stroke:#262626;stroke-linecap:round;stroke-linejoin:round;" d="M13.47,37.94s.23,3.88,1.32,5.48"/></g></g></svg>