<svg xmlns="http://www.w3.org/2000/svg" viewBox="0 0 185.35 82.08"><title>stolecsch_cl</title><g id="Layer_2" data-name="Layer 2"><g id="Layer_1-2" data-name="Layer 1"><g style="opacity:0.25;"><path style="fill: currentColor;" d="M30.26,32.74V29.46l.22,0c86.58,9.11,133.57,13.83,139.65,14h.19V48.3Z"/></g><g style="opacity:0.25;"><polygon style="fill: currentColor;" points="129.04 70.93 159.89 47.74 163.47 48.14 129.04 74.77 129.04 70.93"/></g><g style="opacity:0.25;"><polygon style="fill: currentColor;" points="109.41 77.61 117.36 72.61 121.07 73.61 109.41 81.03 109.41 77.61"/></g><g style="opacity:0.25;"><polygon style="fill: currentColor;" points="174.66 36.64 184.55 29.21 184.55 31.83 173.5 40.38 174.66 36.64"/></g><g style="opacity:0.25;"><path style="fill: currentColor;" d="M81,59.62a178.34,178.34,0,0,1-38.16-3.79L28.1,51.12c-6.55-3-10-6.47-10-10V39.43l.38.65C23.71,49.23,50,55.86,81,55.86c24.25,0,46-4,56.83-10.52l.06,0,4,.45-.28.29C133.92,54.16,109.57,59.62,81,59.62Z"/></g><g style="opacity:0.25;"><path style="fill: currentColor;" d="M81,55.26c-34.7,0-62.94-8.32-62.94-18.55a7.36,7.36,0,0,1,2.46-5.08l.15-.16.14.16c6.37,7.49,29.79,12.72,57,12.72A183.21,183.21,0,0,0,108,42l29,3.21-.56.31C125.28,51.52,104.07,55.26,81,55.26Z"/></g><g style="opacity:0.25;"><path style="fill: currentColor;" d="M170.23,43c-5.94-.16-90-8.88-138.72-14l-.61-.06L79.32.81,181.94,8.1l-.09.24c-3.1,9.21-10.42,31-11.42,34.51l0,.15Z"/></g><g style="opacity:0.25;"><path style="fill: currentColor;" d="M170.92,45.34v-2c.2-1,5.81-17.85,10.56-32l.38.12L171.31,45.4Z"/></g><path style="fill:none;stroke:#262626;stroke-linecap:round;stroke-linejoin:round;" d="M30,29.13S170.62,43.94,170.62,43.28,182.34,7.83,182.34,7.83L79.25.5Z"/><polyline style="fill:none;stroke:#262626;stroke-linecap:round;stroke-linejoin:round;" points="170.62 43.28 170.62 48.63 29.96 33 29.96 29.13"/><polyline style="fill:none;stroke:#262626;stroke-linecap:round;stroke-linejoin:round;" points="182.34 7.83 182.34 10.91 170.62 48.63"/><polyline style="fill:none;stroke:#262626;stroke-linecap:round;stroke-linejoin:round;" points="174.41 36.46 184.85 28.61 177.24 27.33"/><polyline style="fill:none;stroke:#262626;stroke-linecap:round;stroke-linejoin:round;" points="87.59 59.82 128.74 70.78 159.81 47.43"/><polyline style="fill:none;stroke:#262626;stroke-linecap:round;stroke-linejoin:round;" points="17.79 36.71 10.52 39.31 17.75 41.23"/><polyline style="fill:none;stroke:#262626;stroke-linecap:round;stroke-linejoin:round;" points="164.24 47.92 128.74 75.38 128.74 70.78"/><polyline style="fill:none;stroke:#262626;stroke-linecap:round;stroke-linejoin:round;" points="184.85 28.61 184.85 31.98 172.93 41.2"/><polyline style="fill:none;stroke:#262626;stroke-linecap:round;stroke-linejoin:round;" points="19.82 45.83 10.52 43.3 10.52 39.31"/><line style="fill:none;stroke:#262626;stroke-linecap:round;stroke-linejoin:round;" x1="128.74" y1="75.38" x2="70.87" y2="59.68"/><polyline style="fill:none;stroke:#262626;stroke-linecap:round;stroke-linejoin:round;" points="117.31 72.28 109.31 77.31 0.5 42.64 17.81 36.23"/><polyline style="fill:none;stroke:#262626;stroke-linecap:round;stroke-linejoin:round;" points="0.5 42.64 0.5 46.67 109.11 81.58 109.11 77.31"/><line style="fill:none;stroke:#262626;stroke-linecap:round;stroke-linejoin:round;" x1="109.11" y1="81.58" x2="121.81" y2="73.5"/><path style="fill:none;stroke:#262626;stroke-linecap:round;stroke-linejoin:round;" d="M92.9,40c-4.81.36-9.88.56-15.1.56-32.23,0-58.36-7.38-58.36-16.49,0-8,20-14.6,46.6-16.14"/><path style="fill:none;stroke:#262626;stroke-linecap:round;stroke-linejoin:round;" d="M137.85,45C127.57,51.25,106,55.56,81,55.56c-34.93,0-63.24-8.44-63.24-18.85a7.9,7.9,0,0,1,2.85-5.61"/><path style="fill:none;stroke:#262626;stroke-linecap:round;stroke-linejoin:round;" d="M142.5,45.51C135.8,53.78,110.82,59.92,81,59.92c-34.93,0-63.24-8.44-63.24-18.85V36.71"/><path style="fill:none;stroke:#262626;stroke-linecap:round;stroke-linejoin:round;" d="M108,41.68a182.91,182.91,0,0,1-30.2,2.37c-32.23,0-58.36-7.38-58.36-16.48v-3.5"/></g></g></svg>