<?xml version="1.0" encoding="UTF-8"?>
<svg width="200px" height="60px" viewBox="0 0 200 60" version="1.1" xmlns="http://www.w3.org/2000/svg" xmlns:xlink="http://www.w3.org/1999/xlink">
    <!-- Generator: Sketch 48.2 (47327) - http://www.bohemiancoding.com/sketch -->
    <title>logo</title>
    <desc>Created with Sketch.</desc>
    <defs></defs>
    <g id="avalon_hp_dt" stroke="none" stroke-width="1" fill="none" fill-rule="evenodd" transform="translate(-20.000000, -20.000000)">
        <g id="header" transform="translate(20.000000, -2.000000)">
            <g id="logo" transform="translate(0.000000, 22.000000)">
                <g>
                    <rect id="Rectangle" style="#252525" fill="#252525" x="0" y="0" width="200" height="60"></rect>
                    <g id="avalon_logo_update" transform="translate(19.000000, 15.000000)" fill="#FFFFFF">
                        <path d="M130,15.5052709 L129.990393,15.777441 L129.980046,16.0496112 L129.960832,16.3217813 L129.941617,16.5834896 L129.903188,16.8451978 L129.86402,17.096444 L129.815984,17.3476903 L129.767209,17.5989366 L129.699219,17.8501828 L129.631229,18.0909672 L129.554371,18.3212097 L129.476774,18.561994 L129.379962,18.7923164 L129.28315,19.012097 L129.175992,19.2424194 L129.059966,19.4622799 L128.94394,19.6716784 L128.817568,19.891459 L128.682327,20.0903955 L128.53674,20.2997142 L128.391153,20.4986508 L128.22709,20.6975075 L128.062289,20.8859821 L127.897487,21.0848388 L127.713471,21.2628515 L127.529455,21.4512463 L127.335093,21.6291791 L127.131862,21.8071918 L126.928632,21.9746627 L126.705448,22.1422134 L126.483003,22.3096843 L126.259818,22.4666933 L126.01742,22.6237022 L125.77576,22.7702493 L125.533361,22.9167963 L125.271748,23.0633433 L125.019742,23.1994284 L124.758129,23.3251314 L124.486909,23.4506746 L124.206081,23.5763776 L123.925253,23.6915388 L123.644426,23.8066202 L123.353252,23.9113194 L123.053209,24.0160187 L122.753167,24.110256 L122.442779,24.2044134 L122.13239,24.2881888 L121.813133,24.3719642 L121.493138,24.4451978 L121.163535,24.5185112 L120.825063,24.5812828 L120.485853,24.6441343 L120.146643,24.706906 L119.797825,24.7487537 L119.4394,24.8011433 L119.080976,24.842991 L118.712943,24.8848388 L118.334565,24.9163045 L117.956926,24.9372284 L117.579286,24.9581522 L116.794447,24.9896179 L115.990393,25 L115.186339,24.9896179 L114.401499,24.9581522 L114.013514,24.9372284 L113.635874,24.9058425 L113.258235,24.8744567 L112.89981,24.842991 L112.531778,24.8011433 L112.173353,24.7487537 L111.475718,24.6441343 L111.136508,24.5812828 L110.806905,24.5080493 L110.477302,24.4347358 L110.148438,24.3615022 L109.838049,24.2777269 L109.518053,24.1834896 L109.218011,24.0997142 L108.917969,23.9950948 L108.617188,23.8903955 L108.326753,23.7856963 L108.045925,23.6705351 L107.765097,23.5554537 L107.493138,23.4297507 L107.221917,23.3042075 L106.960304,23.1680425 L106.698691,23.0319575 L106.447424,22.8958724 L106.205025,22.7388634 L105.962627,22.5923164 L105.729835,22.4353075 L105.497783,22.2677567 L105.274599,22.1002858 L105.061761,21.9328149 L104.848184,21.7652642 L104.460938,21.4093985 L104.276921,21.2210037 L104.092905,21.042991 L103.928104,20.8440545 L103.763302,20.6556597 L103.608108,20.456803 L103.453653,20.2578664 L103.308066,20.0484679 L103.182432,19.8496112 L103.046453,19.6297507 L102.930427,19.4204321 L102.813661,19.2005716 L102.707242,18.9807112 L102.610431,18.7503888 L102.523226,18.5306082 L102.436022,18.2898239 L102.358425,18.0595015 L102.291174,17.8187172 L102.232791,17.5779328 L102.174409,17.3266866 L102.126372,17.0755202 L102.087204,16.8242739 L102.058383,16.5730276 L102.029561,16.3113194 L102.009607,16.0391493 L102,15.777441 L102,15.2331008 L102.009607,14.9608507 L102.029561,14.6991425 L102.087204,14.1757261 L102.126372,13.9244798 L102.174409,13.6733134 L102.232791,13.4220672 L102.291174,13.1812828 L102.358425,12.9404985 L102.436022,12.6997142 L102.610431,12.2391493 L102.707242,12.0088269 L102.813661,11.7889664 L102.930427,11.5691858 L103.046453,11.3597873 L103.182432,11.1399269 L103.308066,10.9305284 L103.453653,10.7316716 L103.608108,10.5328149 L103.763302,10.3338784 L103.928104,10.1350216 L104.092905,9.94654701 L104.276921,9.75807238 L104.460938,9.58013955 L104.654561,9.40220672 L104.848184,9.22419402 L105.061761,9.05672313 L105.274599,8.88925224 L105.497783,8.72178135 L105.720228,8.55423059 L105.962627,8.39722164 L106.447424,8.10412761 L106.698691,7.9575806 L107.221917,7.68541045 L107.493138,7.55970745 L107.765097,7.44462612 L108.045925,7.31900298 L108.326753,7.21430373 L108.617188,7.09914253 L108.917969,7.00490522 L109.218011,6.90028582 L109.518053,6.81651045 L109.838049,6.72227313 L110.148438,6.63849775 L110.477302,6.56526418 L110.806905,6.49195074 L111.136508,6.4291791 L111.475718,6.36640747 L111.824535,6.30355597 L112.173353,6.25124627 L112.531778,6.20931865 L112.890203,6.16747089 L113.258235,6.12554327 L114.013514,6.06277164 L114.401499,6.04184776 L115.186339,6.01046194 L115.990393,6 L116.794447,6.01046194 L117.579286,6.04184776 L117.956926,6.06277164 L118.334565,6.09415745 L118.712943,6.12554327 L119.080976,6.15700895 L119.4394,6.19885671 L119.797825,6.25124627 L120.146643,6.30355597 L120.485853,6.35586566 L120.825063,6.41871716 L121.163535,6.49195074 L121.493138,6.56526418 L121.813133,6.63849775 L122.13239,6.72227313 L122.442779,6.80604851 L122.753167,6.90028582 L123.053209,6.99444328 L123.353252,7.09914253 L123.644426,7.20384179 L124.486909,7.54932538 L124.758129,7.68541045 L125.019742,7.81095372 L125.281356,7.94711866 L125.533361,8.09366567 L125.77576,8.24021269 L126.01742,8.3867597 L126.259818,8.54376865 L126.483003,8.70085747 L126.705448,8.86832836 L126.928632,9.03579925 L127.131862,9.21373208 L127.335093,9.38128284 L127.529455,9.55921567 L127.897487,9.93608507 L128.22709,10.3129545 L128.391153,10.5118112 L128.53674,10.7107478 L128.682327,10.9201463 L128.817568,11.1294649 L128.94394,11.3388634 L129.175992,11.7785045 L129.28315,11.9983649 L129.476774,12.4589298 L129.554371,12.6892522 L129.631229,12.9300366 L129.767209,13.4115254 L129.815984,13.6627716 L129.86402,13.9140179 L129.903188,14.1652642 L129.941617,14.4269724 L129.960832,14.6886806 L129.980046,14.9608507 L129.990393,15.2331008 L130,15.5052709 Z M116,10.5642007 L116.252006,10.5746627 L116.504012,10.5955866 L116.755279,10.6269724 L116.997677,10.6689 L117.240076,10.7212097 L117.482475,10.7840612 L117.714527,10.8677567 L117.937711,10.9515321 L118.160156,11.0561515 L118.373733,11.1608507 L118.586571,11.2864739 L118.790541,11.412097 L118.984164,11.5481821 L119.16818,11.6947291 L119.352196,11.8518179 L119.526605,12.0088269 L119.691406,12.1867597 L119.846601,12.3647724 L119.991448,12.5531672 L120.137035,12.7415619 L120.262669,12.9404985 L120.379434,13.149897 L120.49546,13.3592157 L120.592272,13.5790761 L120.679476,13.8093186 L120.757073,14.039641 L120.825063,14.2699634 L120.882707,14.5107478 L120.931482,14.7515321 L120.960304,14.9923164 L120.979519,15.2434828 L120.979519,15.7565172 L120.960304,16.0076836 L120.931482,16.2484679 L120.882707,16.4997142 L120.825063,16.7300366 L120.757073,16.9708209 L120.679476,17.2011433 L120.592272,17.4210037 L120.49546,17.6407843 L120.379434,17.8501828 L120.262669,18.0595015 L120.137035,18.2584381 L119.991448,18.4572948 L119.846601,18.6457694 L119.691406,18.8237022 L119.526605,18.9911731 L119.352196,19.1587239 L118.984164,19.4518179 L118.790541,19.5983649 L118.586571,19.7239881 L118.373733,19.8391493 L118.160156,19.9543105 L117.937711,20.0484679 L117.714527,20.1427052 L117.482475,20.2160187 L117.240076,20.2787903 L116.997677,20.3416418 L116.755279,20.3834896 L116.504012,20.4148754 L116.252006,20.4357993 L115.738387,20.4357993 L115.486381,20.4148754 L115.234375,20.3834896 L114.991976,20.3416418 L114.750317,20.2787903 L114.517525,20.2160187 L114.285473,20.1427052 L114.052682,20.0484679 L113.839105,19.9543105 L113.61666,19.8391493 L113.413429,19.7239881 L113.209459,19.5983649 L112.822213,19.3052709 L112.647804,19.1587239 L112.473395,18.9911731 L112.308594,18.8237022 L112.153399,18.6457694 L111.998944,18.4572948 L111.862965,18.2584381 L111.737331,18.0595015 L111.610959,17.8501828 L111.50454,17.6407843 L111.398121,17.4210037 L111.310916,17.2011433 L111.233319,16.9708209 L111.165329,16.7300366 L111.106947,16.4997142 L111.068518,16.2484679 L111.039696,16.0076836 L111.019742,15.7565172 L111.010135,15.5052709 L111.019742,15.2434828 L111.039696,14.9923164 L111.068518,14.7515321 L111.106947,14.5107478 L111.165329,14.2699634 L111.233319,14.039641 L111.310916,13.8093186 L111.398121,13.5790761 L111.50454,13.3592157 L111.610959,13.149897 L111.737331,12.9404985 L111.862965,12.7415619 L111.998944,12.5531672 L112.153399,12.3647724 L112.308594,12.1867597 L112.473395,12.0088269 L112.822213,11.6947291 L113.015836,11.5481821 L113.209459,11.412097 L113.413429,11.2864739 L113.61666,11.1608507 L113.839105,11.0561515 L114.052682,10.9515321 L114.285473,10.8677567 L114.517525,10.7840612 L114.750317,10.7212097 L114.991976,10.6689 L115.234375,10.6269724 L115.486381,10.5955866 L115.738387,10.5746627 L116,10.5642007 Z" id="Fill-1"></path>
                        <path d="M69.4324937,18.1977909 L67.5146384,13.8204055 L65.6578859,18.2011772 L69.4158161,18.2029942 L69.4324937,18.1977909 Z M54,24.9566391 L63.1553666,6 L72.6456697,6.01081958 L81,25 L72.3974715,25 L71.3199069,22.5407353 L63.8331778,22.520748 L62.792537,24.9566391 L54,24.9566391 Z" id="Fill-2"></path>
                        <polyline id="Fill-3" points="159 25 149.846242 25 141.483022 15.7270297 141.483022 25 133 25 133 6 142.353682 6 150.596337 15.1541579 150.596337 6 159 6 159 25"></polyline>
                        <polygon id="Fill-4" points="84 6 92.1332251 6 92.1332251 20.1117484 100.991029 20.1026529 101 25 84 24.9674216"></polygon>
                        <polyline id="Fill-5" points="58 6 48.6289322 25 39.9161128 25 31 6 39.9161128 6 44.5601831 17.0851694 49.0658691 6 58 6"></polyline>
                        <polyline id="Fill-6" points="0 25 20 25 17.3417609 19.9047552 9.89289799 19.9238638 13.6611506 13.1238103 9.95127676 6 0 25"></polyline>
                        <polyline id="Fill-7" points="10 0 21.8732929 0 35 25 23.0310956 25 10 0"></polyline>
                    </g>
                </g>
            </g>
        </g>
    </g>
</svg>