<svg xmlns="http://www.w3.org/2000/svg" viewBox="0 0 140.61 119.28"><defs><style>.cls-1{opacity:0.25;}.cls-2{fill:#c43939;}.cls-3{fill:none;stroke:#262626;stroke-linecap:round;stroke-linejoin:round;}</style></defs><title>design_cl</title><g id="Layer_2" data-name="Layer 2"><g id="Layer_1-2" data-name="Layer 1"><g style="opacity:0.25;"><circle style="fill:none;" cx="16.17" cy="27.2" r="0.61"/></g><g style="opacity:0.25;"><path style="fill:none;" d="M77.42,26.54a.62.62,0,0,1-.61-.61.61.61,0,0,1,.61-.61.61.61,0,0,1,.61.61A.61.61,0,0,1,77.42,26.54Z"/></g><g style="opacity:0.25;"><path style="fill:none;" d="M56.55,29.17a.61.61,0,0,1-.61-.61.61.61,0,0,1,.61-.61.62.62,0,0,1,.61.61A.61.61,0,0,1,56.55,29.17Z"/></g><g style="opacity:0.25;"><path style="fill:none;" d="M35.22,30.08a.61.61,0,0,1-.6-.61.61.61,0,1,1,1.21,0A.61.61,0,0,1,35.22,30.08Z"/></g><g style="opacity:0.25;"><path style="fill:none;" d="M96.66,21.64a.61.61,0,0,1-.61-.61.61.61,0,0,1,.61-.61.61.61,0,0,1,.61.61A.62.62,0,0,1,96.66,21.64Z"/></g><g style="opacity:0.25;"><path style="fill:none;" d="M33.19,77.13c-11.47,0-19.25-2.88-23.13-8.54C8.13,65.77.31,48.15,2.94,43.22A2.23,2.23,0,0,1,5.06,42c6.7.07,10.11,10,12.15,15.87.55,1.57,1,2.89,1.41,3.74,1,2.12,1.24,2.4,1.75,2.91a17.83,17.83,0,0,1,2.52,3.31l.5-.33a18.78,18.78,0,0,0-2.6-3.41A6.47,6.47,0,0,1,19.45,62l-.11-.25.26,0c8.32-1.33,20.92-2.7,25.35-3,1.2-.07,2.76-.19,4.5-.32,4-.31,10-.77,14.1-.77h.82a46.54,46.54,0,0,0,8.83-1.26,135.7,135.7,0,0,1,17.67-2.62c7-.55,10.69-.67,12.89-.74s2.82-.1,3.49-.51c1.49-.91,1.63-8.54,1.41-10.9a3.23,3.23,0,0,0-1-2.25l-.09-.08,0-.12c.6-2.51,4.05-6.1,4.8-6.85l-.42-.43c-.73.73-4.08,4.19-4.89,6.87l-.06.19-.2-.06a3.64,3.64,0,0,0-1.14-.17,14.27,14.27,0,0,0-5.53,1.66c-4.85,2.27-13.89,6.49-34.49,9.6a172.42,172.42,0,0,1-25.28,2.09,77.15,77.15,0,0,1-15.81-1.37,48.74,48.74,0,0,0-9.53-1.32h-.59l-.06-.11c-2.67-5.24-5.72-7.8-9.3-7.84a2.84,2.84,0,0,0-2.38,1l-.29.37-.07-.47C.23,27.21-.08,9.9,3.54,7.7A9.4,9.4,0,0,1,8.68,6.14a26.76,26.76,0,0,1,4.94.68A66.4,66.4,0,0,0,26.69,8.28h2.86c14.8,0,40.72-1.25,52-4l4.36-1.1C91.11,1.84,95.2.79,98.15.79c2.35,0,3.9.66,4.89,2.08,3,4.33,10,17.24,11.93,24.23.88,3.13,2,5,3.57,5.81a3.79,3.79,0,0,0,1.77.42,8,8,0,0,0,2.67-.59c.36-.12.82-.31,1.37-.53,2.31-.93,6.52-2.64,9.83-2.64a5.49,5.49,0,0,1,3.4.95c3,2.28,2.95,9.32-.1,20.37-2.47,8.93-9.23,14.23-20.08,15.76-3.61.51-8.63,1.11-15,1.87-14,1.68-33.12,4-53.46,7.2a102,102,0,0,1-15.78,1.41Zm28.44-6.72c7.59-1.74,27.13-3,35-3h.77v-.6h-1c-7.79,0-27.3,1.22-34.93,3Zm72.46-18.1c3.51-12.11,4-19.51,1.41-22l-.39.46c1.39,1.42,2.84,6.09-1.59,21.4Zm-98.87-24a1.21,1.21,0,1,0,1.21,1.21A1.21,1.21,0,0,0,35.22,28.26Zm21.33-.91a1.21,1.21,0,1,0,1.21,1.21A1.21,1.21,0,0,0,56.55,27.35ZM16.17,26a1.21,1.21,0,0,0,0,2.42,1.21,1.21,0,0,0,0-2.42ZM6.38,9.5C4,10.57,2.85,17.24,3,28.37h.6c-.16-10.5.94-17.27,3-18.29Zm71,15.22a1.21,1.21,0,1,0,1.21,1.21A1.21,1.21,0,0,0,77.42,24.72Zm19.24-4.9A1.21,1.21,0,1,0,97.87,21,1.21,1.21,0,0,0,96.66,19.82Z"/></g><path style="fill:none;stroke:#262626;stroke-linecap:round;stroke-linejoin:round;" d="M23.25,67.85c-3.45-5.26-2.36-2.18-4.36-6.35S13.72,41.81,5.1,41.72c-8-.09,2.36,23.59,4.72,27S19.44,80.74,49,76s56.8-7.44,68.42-9.07,18-7.45,20.33-16,3.81-17.78,0-20.69-12.35,1.27-14.89,2.18-5.62,1.64-7.62-5.44-9.07-20.15-12-24.32S93.3,1.06,81.5,4,41,8.16,26.69,8s-17-4.35-23.3-.54C-.8,10,.24,30.37,2.3,44"/><path style="fill:none;stroke:#262626;stroke-linecap:round;stroke-linejoin:round;" d="M9,67.44a3.22,3.22,0,0,0,.78,2.25c2.36,3.45,9.62,12,39.2,7.26s56.8-7.44,68.42-9.07c7.79-1.1,14.09-4,16.31-9"/><path style="fill:none;stroke:#262626;stroke-linecap:round;stroke-linejoin:round;" d="M18.89,61.5c8.26-1.36,21.6-2.81,26-3.08s13.8-1.18,19.33-1.09,12.34-2.76,26.59-3.87,15.06-.49,16.24-1.22,1.55-7.71,1.27-10.61-2.45-3.63-8.07-1-14.7,6.63-34.58,9.62S32.23,52.61,24.52,51s-10.23-1.28-10.23-1.28"/><path style="fill:none;stroke:#262626;stroke-linecap:round;stroke-linejoin:round;" d="M107.24,39.38c.47-3,5.09-7.44,5.09-7.44"/><circle style="fill:none;stroke:#262626;stroke-linecap:round;stroke-linejoin:round;" cx="16.17" cy="27.2" r="0.91"/><circle style="fill:none;stroke:#262626;stroke-linecap:round;stroke-linejoin:round;" cx="35.22" cy="29.47" r="0.91"/><circle style="fill:none;stroke:#262626;stroke-linecap:round;stroke-linejoin:round;" cx="56.55" cy="28.56" r="0.91"/><circle style="fill:none;stroke:#262626;stroke-linecap:round;stroke-linejoin:round;" cx="77.42" cy="25.93" r="0.91"/><circle style="fill:none;stroke:#262626;stroke-linecap:round;stroke-linejoin:round;" cx="96.66" cy="21.03" r="0.91"/><path style="fill:none;stroke:#262626;stroke-linecap:round;stroke-linejoin:round;" d="M10.89,70.17c-1.46.16-2.07,1.65-2.48,2.88s-.89,3.81-.89,3.81a1.67,1.67,0,0,0,1.69,1.43c1.58.13,2.81.08,3.69-.88l.89-1,4.08.55"/><path style="fill:none;stroke:#262626;stroke-linecap:round;stroke-linejoin:round;" d="M17.87,75V87a4.26,4.26,0,0,0,2.65.75c1.77,0,3.27-3.34,3.27-3.34s.61-1.83,3.61-2.24,13.75-2.66,13.75-2.66l3.4-.2V76.65"/><path style="fill:none;stroke:#262626;stroke-linecap:round;stroke-linejoin:round;" d="M89.65,70.36V72S111.52,70.94,114,70.8s5.92-.61,7,.82,1.49,1.56,1.49,1.56a16.62,16.62,0,0,0,4.77-.47c-.07-1.23-1.51-8-1.51-8"/><path style="fill:none;stroke:#262626;stroke-linecap:round;stroke-linejoin:round;" d="M123.5,73.2,131,99.25a6.18,6.18,0,0,0,1.7,0c-.68-3-6.07-26.36-6.07-26.36"/><path style="fill:none;stroke:#262626;stroke-linecap:round;stroke-linejoin:round;" d="M108.66,71.08l2,8.82a3.28,3.28,0,0,0,1.65,0l-1.24-9"/><path style="fill:none;stroke:#262626;stroke-linecap:round;stroke-linejoin:round;" d="M7.7,77.41,2.65,94.3a3.3,3.3,0,0,0,2,.41l6.18-16.39"/><path style="fill:none;stroke:#262626;stroke-linecap:round;stroke-linejoin:round;" d="M18.35,87.36l-1,31a2.87,2.87,0,0,0,2.31.22L22.05,87"/><path style="fill:none;stroke:#262626;stroke-linecap:round;stroke-linejoin:round;" d="M135.16,30.38c2.5,2.16,2.3,9.29-1.41,22"/><path style="fill:none;stroke:#262626;stroke-linecap:round;stroke-linejoin:round;" d="M3.33,28.56c-.17-9.93.75-18,3.33-18.85"/><path style="fill:none;stroke:#262626;stroke-linecap:round;stroke-linejoin:round;" d="M61.37,70.17c7.91-1.88,29.35-3.13,36.2-3"/></g></g></svg>