<svg xmlns="http://www.w3.org/2000/svg" viewBox="0 0 103.76 114.2"><defs><style>.cls-1{opacity:0.25;}.cls-2{fill:#c43939;}.cls-3{fill:none;stroke:#262626;stroke-linecap:round;stroke-linejoin:round;}</style></defs><title>kreslo_cl</title><g id="Layer_2" data-name="Layer 2"><g id="Layer_1-2" data-name="Layer 1"><g style="opacity:0.25;"><path style="fill:#c43939;" d="M71.42,72.37A58.81,58.81,0,0,1,65,71.52c-2.18-.35-4.88-.78-7.64-1.13l-3.49-.46c-9.1-1.21-26-3.45-34.83-3.75-10.54-.35-12.48-1.29-13-3.94a26.29,26.29,0,0,1,0-6.91c0-2,.84-3,6-4.27l1.32-.34a87,87,0,0,1,20.85-3.09c4.18-.1,7.41-.15,10.17-.15s5,.05,7.46.11l1.71,0c5.25.13,21.2,1.64,23.26,1.84v0l.24.05a2.81,2.81,0,0,0,.53.08l.46,0a12.19,12.19,0,0,0,1.24.07l.65,0,.22,0-.26,7.81-.09.06c-1.51.9-2.56,1.49-3.26,1.84l.25.54c.65-.31,1.53-.81,2.76-1.54l.31-.18-.27,8.39a6.41,6.41,0,0,1-3.23,3.86c-.94.42-1.61.77-2.14,1.06a5.7,5.7,0,0,1-2.56.89ZM12.48,53c12.36,0,40,2.52,57.06,6.63l.14-.58c-17.11-4.12-44.87-6.65-57.31-6.65l-2,0,0,.6Z"/></g><g style="opacity:0.25;"><path style="fill:#c43939;" d="M75.7,48.76c-5.12-.48-17.52-1.61-22.1-1.73l-1.67,0c-2.49-.06-4.65-.11-7.53-.11h-.9l0-.23a4.18,4.18,0,0,1-2.64-1.75,3.37,3.37,0,0,1-.41-2.6c.47-2,2.11-11,2.66-14.66.47-3.17,1.91-13.56,2.29-19.61C45.82,2.15,46.86.8,51.06.8h.41c3.41.06,19.65.51,30.39.8l11.23.3c3.29.08,4.26,1.22,4.91,2l.19.21c.67.75,1,2.37,1,4.81,0,.42-.09,1.27-.25,2.51-.06.33-.13.84-.23,1.61C98,18,96.66,25.76,95.85,30.42l0,.28-.54,3.11,0,.14-.14,0-.47.1a16.29,16.29,0,0,0-2.46,1.21l-.34.19,0-.38c.54-4.8,3.05-22.73,4.05-29.45l-.59-.09c-.9,6-3.78,26.47-4.13,30.18v.1l-.1.05c-4.29,2.44-11.22,6.72-12.5,7.67L78,44a6.43,6.43,0,0,0-1.88,1.73l-.07.12-.14,0a107.16,107.16,0,0,0-20.68-1.65c-2.81,0-5.3.06-7.3.11l-1.09,0v.6l1.09,0c1.87,0,4.43-.11,7.3-.11a107.48,107.48,0,0,1,20.42,1.61l.19,0,0,.19c0,.12,0,.25,0,.38a4,4,0,0,0,.13,1.52l.1.29Z"/></g><g style="opacity:0.25;"><path style="fill:#c43939;" d="M88,50.14l.22,0c3.13.54,4.26,1.41,4.66,2s.63,5.45.4,8.28v.05l0,0a9.22,9.22,0,0,1-2.7,2.32l-3.66,2.25Z"/></g><g style="opacity:0.25;"><path style="fill:#c43939;" d="M91.75,50.61a12.84,12.84,0,0,0-3.54-1l-.18,0,.23-3.16-.55,0,.56-.32a26.08,26.08,0,0,0,4.49-3c.23-.23.5-.53.86-1l.41-.51-.06.65c-.15,1.53-.16,2.94-.16,3.88a8.21,8.21,0,0,1-.1,1.79c-.53,1.56-1.14,2.49-1.8,2.75l-.08,0Z"/></g><polyline style="fill:none;stroke:#262626;stroke-linecap:round;stroke-linejoin:round;" points="87.98 46.17 83.03 112.79 81.48 113.7 78.37 113.06 80.47 49.83"/><line style="fill:none;stroke:#262626;stroke-linecap:round;stroke-linejoin:round;" x1="81.48" y1="113.7" x2="86.05" y2="46.99"/><path style="fill:none;stroke:#262626;stroke-linecap:round;stroke-linejoin:round;" d="M96.14,38.54c-1,8.72-1.84,16.54-2.08,18.2-.59,4.07-.46,8.82-5,11.21-2.38,1.19-2.77,1.41-2.77,1.41"/><path style="fill:none;stroke:#262626;stroke-linecap:round;stroke-linejoin:round;" d="M85.74,76.32c4.8-2.65,4.57-2.74,5.62-2.74s3.43,9.1,4.12,11.48,1,2.7,1.19,2.88a3.71,3.71,0,0,0,2.61-.55,5.08,5.08,0,0,0,1-1.64s-2-7.19-2.6-9.84-1-10-.23-16.21,5.81-47.25,5.81-47.25a1.79,1.79,0,0,0-1-1.65c-1-.41-2.66-.36-3,.28-.16.33-1.42,11.62-2.68,22.92"/><path style="fill:none;stroke:#262626;stroke-linecap:round;stroke-linejoin:round;" d="M79.69,73.25l-3.79,1.5L7.08,67.63s-.32,3.89-.23,5.12c.78.19,68.77,8.6,68.77,8.6l3.87-1.92"/><path style="fill:none;stroke:#262626;stroke-linecap:round;stroke-linejoin:round;" d="M98.83,36.18l-.7,5.63s-1.69,19-2.88,22.57-6.59,5.17-9.09,6.3"/><line style="fill:none;stroke:#262626;stroke-linecap:round;stroke-linejoin:round;" x1="101.84" y1="11.71" x2="99.09" y2="34.04"/><path style="fill:none;stroke:#262626;stroke-linecap:round;stroke-linejoin:round;" d="M90.68,73.64c2.86-1.46,4.71.29,5.77,5s2.49,9,2.49,9"/><line style="fill:none;stroke:#262626;stroke-linecap:round;stroke-linejoin:round;" x1="75.9" y1="74.75" x2="75.62" y2="81.35"/><path style="fill:none;stroke:#262626;stroke-linecap:round;stroke-linejoin:round;" d="M99.09,34a16.06,16.06,0,0,0-4.39.32c-1.46.37-14.14,8.1-15.92,9.43s-2.61,1.74-2.7,3.2.14,2.19,1.56,2.28a9.24,9.24,0,0,0,6.13-1.13c3.11-1.61,7.36-4,8.78-5.36s3.66-5,5.58-5.76A2.94,2.94,0,0,0,99.09,34Z"/><path style="fill:none;stroke:#262626;stroke-linecap:round;stroke-linejoin:round;" d="M77.09,46.17c1.73.78,5,.27,8.65-1.83a50.27,50.27,0,0,0,9.33-7.46A8.59,8.59,0,0,1,98,34.68"/><line style="fill:none;stroke:#262626;stroke-linecap:round;stroke-linejoin:round;" x1="15.75" y1="49.82" x2="16.87" y2="40.47"/><path style="fill:none;stroke:#262626;stroke-linecap:round;stroke-linejoin:round;" d="M7.47,72.84l-2.2,28.61s2.4.59,2.88.66a4.65,4.65,0,0,0,1.41-.5l3.36-28.07"/><line style="fill:none;stroke:#262626;stroke-linecap:round;stroke-linejoin:round;" x1="8.06" y1="65.13" x2="7.86" y2="67.71"/><line style="fill:none;stroke:#262626;stroke-linecap:round;stroke-linejoin:round;" x1="9.82" y1="42.14" x2="9.1" y2="51.62"/><path style="fill:none;stroke:#262626;stroke-linecap:round;stroke-linejoin:round;" d="M41.92,34c-5.76,1.87-15.37,4-19,5.17s-15.44,3.77-19.29,4-3.08-1.1-3-1.92-.27-1.65,3.92-2.64S23,33.75,32.45,32.24l9.88-1.58"/><path style="fill:none;stroke:#262626;stroke-linecap:round;stroke-linejoin:round;" d="M2.66,40.47c2.47-.07,18.4-3.77,22.72-4.87l16-4.05"/><line style="fill:none;stroke:#262626;stroke-linecap:round;stroke-linejoin:round;" x1="10.95" y1="73.29" x2="8.15" y2="101.35"/><line style="fill:none;stroke:#262626;stroke-linecap:round;stroke-linejoin:round;" x1="14.12" y1="41.35" x2="13.22" y2="50.46"/><path style="fill:none;stroke:#262626;stroke-linecap:round;stroke-linejoin:round;" d="M43.26,77.34c1.54,2.25,1.82,2.57,2.09,3a3,3,0,0,0,2.43,1.44c1.44.07,2.85-2.35,1.61-3.69"/><path style="fill:none;stroke:#262626;stroke-linecap:round;stroke-linejoin:round;" d="M45.15,77.57c1,1.43,1.62,3,3.2,3.44"/><path style="fill:none;stroke:#262626;stroke-linecap:round;stroke-linejoin:round;" d="M91.73,65.66a30.08,30.08,0,0,0-3.2-1.15"/><path style="fill:none;stroke:#262626;stroke-linecap:round;stroke-linejoin:round;" d="M43.68,47c-2.92-.64-3.93-2.84-3.47-4.76s2.1-11,2.65-14.64S44.78,13.86,45.15,8,46.45.41,51.47.5s37.88,1,41.63,1.1,4.66,1.57,5.31,2.29,1.1,2.2,1.1,5-3.58,22.63-4,25.3"/><path style="fill:none;stroke:#262626;stroke-linecap:round;stroke-linejoin:round;" d="M94.5,40.47C93.88,44,94.26,47.2,94,48s-1,2.82-2.27,3"/><path style="fill:none;stroke:#262626;stroke-linecap:round;stroke-linejoin:round;" d="M79.91,66.62a6.74,6.74,0,0,1-3.4,4.06c-2.6,1.16-3.08,1.84-4.8,2s-7.89-1.14-14.41-2S29.16,66.83,19,66.48,6.3,65.32,5.75,62.3a26.71,26.71,0,0,1,0-7C5.75,53,7.06,52,12,50.77a90,90,0,0,1,22.24-3.44c10.63-.27,13.65-.13,19.35,0s23.5,1.86,23.5,1.86"/><path style="fill:none;stroke:#262626;stroke-linecap:round;stroke-linejoin:round;" d="M87.71,49.8c3.29.49,4.85,1.38,5.41,2.27s.65,6,.43,8.59a8.61,8.61,0,0,1-2.87,2.53l-4.16,2.56"/><path style="fill:none;stroke:#262626;stroke-linecap:round;stroke-linejoin:round;" d="M10.21,52.69C21.4,52.35,51.7,55,69.8,59.35"/><path style="fill:none;stroke:#262626;stroke-linecap:round;stroke-linejoin:round;" d="M76.51,59.7c.89-.42,2.22-1.19,3.7-2.09"/><path style="fill:none;stroke:#262626;stroke-linecap:round;stroke-linejoin:round;" d="M95.66,5.4c-1,6.45-4,27.86-4.18,30.61"/><path style="fill:none;stroke:#262626;stroke-linecap:round;stroke-linejoin:round;" d="M46.66,44.59c6.18-.14,19-.62,29.59,1.58"/></g></g></svg>