<svg xmlns="http://www.w3.org/2000/svg" viewBox="0 0 178.05 85.17"><defs><style>.cls-1{opacity:0.25;}.cls-2{fill:#c43939;}.cls-3{fill:none;stroke:#262626;stroke-linecap:round;stroke-linejoin:round;}</style></defs><title>stol_cl</title><g id="Layer_2" data-name="Layer 2"><g id="Layer_1-2" data-name="Layer 1"><g style="opacity:0.25;"><path style="fill:#c43939;" d="M89,10.47c-24.12,0-49.6-1-68.17-2.66l0-.4c1.71.1,3.53.19,5.53.28,16.72.76,39,1.18,62.61,1.18s45.89-.42,62.61-1.18l4.76-.24,0,.4C137.64,9.51,113.08,10.47,89,10.47Z"/></g><g style="opacity:0.25;"><path style="fill:#c43939;" d="M89,8.27C39.41,8.27,4.77,6.43,1.12,4.72L.73,4.54l.39-.19C4.77,2.64,39.41.8,89,.8s84.26,1.84,87.9,3.55l.39.19-.39.18C173.29,6.43,138.64,8.27,89,8.27Z"/></g><ellipse style="fill:none;stroke:#262626;stroke-linecap:round;stroke-linejoin:round;" cx="89.03" cy="4.54" rx="88.53" ry="4.04"/><path style="fill:none;stroke:#262626;stroke-linecap:round;stroke-linejoin:round;" d="M177.39,4.78c-2.85,2.68-44.44,6-88.36,6S3.62,7.53.77,4.85"/><path style="fill:none;stroke:#262626;stroke-linecap:round;stroke-linejoin:round;" d="M18,7.86C19.31,10.65,26.47,22,29,26a3.48,3.48,0,0,1,.4,2.88l-14,49.24a.33.33,0,0,0,.32.42h3.06a.32.32,0,0,0,.31-.22L39.81,14.86a2,2,0,0,1,1.86-1.35H84.83a.33.33,0,0,1,.33.33V71.71h3l1-57.88a.5.5,0,0,1,.5-.49H92"/><path style="fill:none;stroke:#262626;stroke-linecap:round;stroke-linejoin:round;" d="M21.58,8.19,29.31,19a1.77,1.77,0,0,0,3.14-.52l2.76-9.25"/><path style="fill:none;stroke:#262626;stroke-linecap:round;stroke-linejoin:round;" d="M154.7,8.19,147,19a1.77,1.77,0,0,1-3.14-.52l-2.76-9.25"/><path style="fill:none;stroke:#262626;stroke-linecap:round;stroke-linejoin:round;" d="M92,10.77l.77,73.9h3l-.37-70.83a.33.33,0,0,1,.33-.33h38.83a2,2,0,0,1,1.86,1.35l20.42,62.08a.32.32,0,0,0,.31.22h3.06a.33.33,0,0,0,.32-.42L146.93,28.85a3.48,3.48,0,0,1,.4-2.88c2.48-3.94,9.64-15.32,11-18.11"/></g></g></svg>