<?xml version="1.0" encoding="utf-8"?>
<!-- Generator: Adobe Illustrator 21.0.0, SVG Export Plug-In . SVG Version: 6.00 Build 0)  -->
<svg version="1.1" id="Layer_1" xmlns="http://www.w3.org/2000/svg" xmlns:xlink="http://www.w3.org/1999/xlink" x="0px" y="0px"
	 viewBox="0 0 164 102" style="enable-background:new 0 0 164 102;" xml:space="preserve">
<style type="text/css">
	.st0{opacity:0.25;fill:#c43939;enable-background:new;}
	.st1{fill:none;stroke:#262626;stroke-linecap:round;stroke-linejoin:round;}
	.st2{fill:none;stroke:#262626;stroke-linejoin:round;}
</style>
<title>skl2</title>
<desc>Created with Sketch.</desc>
<path id="Shape_27_" style="opacity:0.25;fill:#c43939;enable-background:new;" d="M56.6,101.1l56.3-14.5V42.1c0-1-0.4-1.9-1.2-2.6c-0.8-0.6-1.7-0.9-2.7-0.8l-48,7.5
	c-2.5,0.4-4.4,2.6-4.4,5.2L56.6,101.1z"/>
<path style="opacity:0.25;fill:#c43939;enable-background:new;" d="M34,25.7L161.4,7.8l-39.3-6.7c-0.2,0-0.4-0.1-0.5,0h-0.3L1.2,13.7l30.9,11.8C32.7,25.7,33.4,25.8,34,25.7z
	 M34.2,26.7c-0.2,0-0.4,0-0.7,0c-0.6,0-1.2-0.1-1.7-0.3L1.1,14.8c0,0.5,0,1,0.1,1.5L32.1,28c0.6,0.2,1.3,0.3,1.9,0.2l28.5-4l0,0
	l99.7-14c0.1-0.5,0.2-1,0.2-1.5L34.2,26.7z"/>
<g id="Page-1">
	<g id="skl2">
		<path id="Shape" style="fill:none;stroke:#262626;stroke-linecap:round;stroke-linejoin:round;" d="M0.5,13.6c0,0-0.2,2.9,0.4,3.1l31,11.7c0.7,0.3,1.4,0.3,2.1,0.2l128.3-18.1c0.4-0.1,0.7-2.9,0.3-3
			"/>
		<path id="Shape_1_" style="fill:none;stroke:#262626;stroke-linecap:round;stroke-linejoin:round;" d="M34,26.2L162.3,8.1c0.2,0,0.3-0.2,0.3-0.4c0-0.2-0.1-0.3-0.3-0.4l-40.2-6.8c-0.3,0-0.7,0-1,0
			L1,13.2c-0.2,0-0.4,0.2-0.4,0.5c0,0.2,0.1,0.4,0.3,0.5l31,11.7C32.5,26.2,33.3,26.3,34,26.2L34,26.2z"/>
		<path id="Shape_2_" style="fill:none;stroke:#262626;stroke-linecap:round;stroke-linejoin:round;" d="M18.9,44.1v6.7c0,0.7-0.1,1.4-0.3,2l-2.7,7.5"/>
		<path id="Shape_3_" style="fill:none;stroke:#262626;stroke-linecap:round;stroke-linejoin:round;" d="M18.9,23.5V43"/>
		<path id="Shape_4_" style="fill:none;stroke:#262626;stroke-linecap:round;stroke-linejoin:round;" d="M15.4,61.6l-2.5,6.9c-0.3,0.7-0.4,1.5-0.4,2.2v9.5c-0.6,0.4-1.4,0.4-1.9,0v-9.5
			c0-1,0.2-2,0.5-2.9l5.6-15.6c0.2-0.4,0.2-0.9,0.2-1.3v-28"/>
		<path id="Shape_5_" style="fill:none;stroke:#262626;stroke-linecap:round;stroke-linejoin:round;" d="M34.4,28.7v27.6c0,0.7,0.1,1.3,0.2,1.9L41,83c0.2,0.7,0.3,1.5,0.3,2.2v12.7
			c-0.7,0.4-1.5,0.4-2.2,0V85.2c0-0.6-0.1-1.1-0.2-1.6l-6.4-24.8c-0.2-0.8-0.3-1.6-0.3-2.5V28.7"/>
		<path id="Shape_6_" style="fill:none;stroke:#262626;stroke-linecap:round;stroke-linejoin:round;" d="M127.7,26.1v5.6c0,1.2-0.3,2.3-0.8,3.4l-2.9,5.7"/>
		<path id="Shape_7_" style="fill:none;stroke:#262626;stroke-linecap:round;stroke-linejoin:round;" d="M127.7,15.5v9.4"/>
		<path id="Shape_8_" style="fill:none;stroke:#262626;stroke-linecap:round;stroke-linejoin:round;" d="M125.9,24.2v-8.5"/>
		<path id="Shape_9_" style="fill:none;stroke:#262626;stroke-linecap:round;stroke-linejoin:round;" d="M123.4,41.8l-3,5.9c-0.4,0.8-0.6,1.7-0.7,2.7v7.3c-0.6,0.3-1.2,0.3-1.8,0v-7.3
			c0-1.2,0.3-2.4,0.8-3.5l6.5-12.7c0.4-0.8,0.6-1.7,0.6-2.5v-5.4"/>
		<path id="Shape_10_" style="fill:none;stroke:#262626;stroke-linecap:round;stroke-linejoin:round;" d="M145.8,12.9v23.8c0,0.5,0.1,1.1,0.3,1.6l7.1,20.1c0.3,0.8,0.4,1.6,0.4,2.4v8.3
			c-0.6,0.4-1.3,0.4-1.9,0v-8.3c0-0.6-0.1-1.2-0.3-1.8l-7.1-20.2c-0.2-0.7-0.4-1.5-0.4-2.2V13.2"/>
		<path id="Shape_11_" style="fill:none;stroke:#262626;stroke-linecap:round;stroke-linejoin:round;" d="M35.8,71.8L14.4,61.1c-0.1-0.2-0.1-0.5,0-0.7s0.3-0.4,0.5-0.5l20.3,9.8"/>
		<path id="Shape_12_" style="fill:none;stroke:#262626;stroke-linecap:round;stroke-linejoin:round;" d="M148,49.4l-25.3-7.8c-0.2-0.5-0.1-0.9,0.3-1.2l24.4,7.2"/>
		<polyline id="Shape_13_" style="fill:none;stroke:#262626;stroke-linecap:round;stroke-linejoin:round;" points="59.4,25.1 35.9,39.5 34.4,39.8 		"/>
		<polyline id="Shape_14_" style="fill:none;stroke:#262626;stroke-linecap:round;stroke-linejoin:round;" points="34.4,48 36.5,40.3 62.5,24.7 		"/>
		<polyline id="Shape_15_" style="fill:none;stroke:#262626;stroke-linecap:round;stroke-linejoin:round;" points="34.4,40.9 35.3,40.7 34.4,43.9 		"/>
		<path id="Shape_16_" style="fill:none;stroke:#262626;stroke-linecap:round;stroke-linejoin:round;" d="M32.2,40.2l-13.9,2.9c-0.1,0.2-0.2,0.4-0.2,0.6c0,0.2,0.2,0.4,0.3,0.5l13.7-2.9"/>
		<path id="Shape_17_" style="fill:none;stroke:#262626;stroke-linecap:round;stroke-linejoin:round;" d="M107.6,18.3l15.6,6.2l3.2,2.2c0.5-0.1,0.6-0.4,0.6-0.8l16.9,6"/>
		<polyline id="Shape_18_" style="fill:none;stroke:#262626;stroke-linecap:round;stroke-linejoin:round;" points="143.9,30.6 123.7,23.4 109.5,18 		"/>
		<path id="Shape_19_" style="fill:none;stroke:#262626;stroke-linecap:round;stroke-linejoin:round;" d="M127,25.9l-4.3-1.7"/>
		<g id="Group" transform="translate(46.000000, 35.000000)">
			<path id="Shape_20_" style="fill:none;stroke:#262626;stroke-linejoin:round;" d="M10.4,65.6l56.3-14.5V6.6c0-1-0.4-1.9-1.2-2.6c-0.8-0.6-1.7-0.9-2.7-0.8l-48,7.5
				c-2.5,0.4-4.4,2.6-4.4,5.2L10.4,65.6z"/>
			<path id="Shape_21_" style="fill:none;stroke:#262626;stroke-linejoin:round;" d="M64.8,3.6l-8.6-2.8c-1.6-0.5-3.2-0.7-4.9-0.4L5.2,6.9c-2.6,0.4-4.5,2.6-4.5,5.2v48.8l9.7,4.8
				"/>
			<path id="Shape_22_" style="fill:none;stroke:#262626;stroke-linejoin:round;" d="M4.8,62.8V15c0-2-1-5.6,9.2-6.9s40.6-6,40.6-6s3.5-0.6,5.2-0.1"/>
			<path id="Shape_23_" style="fill:none;stroke:#262626;stroke-linecap:round;stroke-linejoin:round;" d="M6.5,29.2c-3.9,1.2-4,3.7-4.9,5.2c-0.9,1.5-1.4,10.9,0,13c1.4,2.1,3.3-4.1,4.9-4.6"/>
			<path id="Shape_24_" style="fill:none;stroke:#262626;stroke-linejoin:round;" d="M2.4,32.6c-0.8,2.3-0.9,5.9-0.8,8.1c0,2.1,0.4,7.5,2,6"/>
			<path id="Shape_25_" style="fill:none;stroke:#262626;stroke-linejoin:round;" d="M25.7,6.3C25,5.7,25,5.2,25.9,5.1l6.1-0.8c0.6-0.1,1.1,0,1.6,0.3l0.9,0.5"/>
			<path id="Shape_26_" style="fill:none;stroke:#262626;stroke-linejoin:round;" d="M32.8,5.3L33.7,6c0.3,0.2,0.6,0.3,1,0.2c0,0,5.3-0.8,6.4-1c1-0.2,0.4-0.6,0.4-0.6l-0.8-0.5"
				/>
		</g>
	</g>
</g>
</svg>
